<svg width="34" height="34" viewBox="0 0 34 34" fill="none" xmlns="http://www.w3.org/2000/svg">
    <mask id="path-1-inside-1_211_2338" fill="white">
    <path d="M20.0112 16.7646C19.8436 16.7646 19.688 16.7185 19.5497 16.6444V16.6464C19.5497 16.9101 19.4472 17.1577 19.2613 17.3432C19.0753 17.5292 18.8279 17.6317 18.5645 17.6317C18.3944 17.6317 18.2368 17.5844 18.0971 17.5083C18.083 17.7496 17.9865 17.9751 17.8145 18.1473C17.6285 18.3332 17.3811 18.4357 17.1175 18.4357C16.5939 18.4357 16.1686 18.0241 16.138 17.5082C15.976 17.5957 15.7928 17.6417 15.6039 17.6295C15.0887 17.5957 14.6853 17.1507 14.6853 16.616V12.1844L14.1807 13.0586C13.9885 13.393 13.6287 13.6006 13.2414 13.6006C13.0526 13.6006 12.8661 13.5511 12.701 13.4565C12.4954 13.3373 12.3483 13.1459 12.2871 12.9169C12.2256 12.6878 12.2574 12.4482 12.3763 12.2429C12.3765 12.2429 14.0274 9.38402 14.1281 9.2084C14.1401 9.182 14.1742 9.10542 14.2032 9.04015C14.2309 8.97783 14.2547 8.91388 14.2775 8.84959C14.7754 7.44403 16.0081 6.57093 17.4949 6.57093C19.4255 6.57093 20.9963 8.27414 20.9963 10.3677L20.9964 15.7792C20.9964 16.0426 20.8941 16.29 20.7083 16.4762C20.5223 16.6621 20.2749 16.7646 20.0112 16.7646L20.0112 16.7646ZM17.4949 7.09447C16.2174 7.09447 15.1991 7.81606 14.771 9.02468C14.7436 9.10143 14.715 9.17817 14.6818 9.25296C14.5852 9.46959 14.5852 9.46959 14.5579 9.50075L14.5543 9.49763C14.4195 9.75198 14.0191 10.4455 12.8296 12.5049C12.7808 12.5894 12.7678 12.6875 12.7927 12.7813C12.818 12.8751 12.8785 12.9541 12.9623 13.0025C13.2224 13.1519 13.5786 13.0555 13.7268 12.7972L14.7205 11.0769C14.7798 10.9744 14.8999 10.924 15.015 10.9552C15.1295 10.9859 15.209 11.0897 15.209 11.2081V16.6162C15.209 16.8714 15.4015 17.0916 15.6382 17.1072C15.7746 17.1144 15.9019 17.0686 15.9975 16.9732C16.0844 16.8863 16.1323 16.7705 16.1323 16.6467V13.1097C16.1323 12.9651 16.2495 12.8478 16.3942 12.8478C16.5388 12.8478 16.6561 12.9649 16.6561 13.1097L16.6559 17.4506C16.6559 17.7052 16.863 17.9123 17.1175 17.9123C17.2412 17.9123 17.3573 17.8644 17.4444 17.7775C17.5313 17.6904 17.5792 17.5743 17.5792 17.4506V13.1097C17.5792 12.9651 17.6963 12.8478 17.8411 12.8478C17.9857 12.8478 18.103 12.9649 18.103 13.1097L18.1028 16.606V16.6467C18.1028 16.901 18.3099 17.1081 18.5646 17.1081C18.6881 17.1081 18.8039 17.0601 18.8915 16.9728C18.9784 16.8861 19.0263 16.7703 19.0263 16.6465V13.1095C19.0263 12.9649 19.1434 12.8476 19.2882 12.8476C19.4328 12.8476 19.5501 12.9647 19.5501 13.1095L19.5497 15.7793C19.5497 16.034 19.7568 16.2411 20.0112 16.2411C20.135 16.2411 20.2508 16.1931 20.3377 16.1063C20.4249 16.0191 20.4727 15.903 20.4727 15.7793L20.4728 10.3678C20.4728 8.5631 19.137 7.09452 17.4949 7.09452L17.4949 7.09447Z"/>
    </mask>
    <path d="M20.0112 16.7646C19.8436 16.7646 19.688 16.7185 19.5497 16.6444V16.6464C19.5497 16.9101 19.4472 17.1577 19.2613 17.3432C19.0753 17.5292 18.8279 17.6317 18.5645 17.6317C18.3944 17.6317 18.2368 17.5844 18.0971 17.5083C18.083 17.7496 17.9865 17.9751 17.8145 18.1473C17.6285 18.3332 17.3811 18.4357 17.1175 18.4357C16.5939 18.4357 16.1686 18.0241 16.138 17.5082C15.976 17.5957 15.7928 17.6417 15.6039 17.6295C15.0887 17.5957 14.6853 17.1507 14.6853 16.616V12.1844L14.1807 13.0586C13.9885 13.393 13.6287 13.6006 13.2414 13.6006C13.0526 13.6006 12.8661 13.5511 12.701 13.4565C12.4954 13.3373 12.3483 13.1459 12.2871 12.9169C12.2256 12.6878 12.2574 12.4482 12.3763 12.2429C12.3765 12.2429 14.0274 9.38402 14.1281 9.2084C14.1401 9.182 14.1742 9.10542 14.2032 9.04015C14.2309 8.97783 14.2547 8.91388 14.2775 8.84959C14.7754 7.44403 16.0081 6.57093 17.4949 6.57093C19.4255 6.57093 20.9963 8.27414 20.9963 10.3677L20.9964 15.7792C20.9964 16.0426 20.8941 16.29 20.7083 16.4762C20.5223 16.6621 20.2749 16.7646 20.0112 16.7646L20.0112 16.7646ZM17.4949 7.09447C16.2174 7.09447 15.1991 7.81606 14.771 9.02468C14.7436 9.10143 14.715 9.17817 14.6818 9.25296C14.5852 9.46959 14.5852 9.46959 14.5579 9.50075L14.5543 9.49763C14.4195 9.75198 14.0191 10.4455 12.8296 12.5049C12.7808 12.5894 12.7678 12.6875 12.7927 12.7813C12.818 12.8751 12.8785 12.9541 12.9623 13.0025C13.2224 13.1519 13.5786 13.0555 13.7268 12.7972L14.7205 11.0769C14.7798 10.9744 14.8999 10.924 15.015 10.9552C15.1295 10.9859 15.209 11.0897 15.209 11.2081V16.6162C15.209 16.8714 15.4015 17.0916 15.6382 17.1072C15.7746 17.1144 15.9019 17.0686 15.9975 16.9732C16.0844 16.8863 16.1323 16.7705 16.1323 16.6467V13.1097C16.1323 12.9651 16.2495 12.8478 16.3942 12.8478C16.5388 12.8478 16.6561 12.9649 16.6561 13.1097L16.6559 17.4506C16.6559 17.7052 16.863 17.9123 17.1175 17.9123C17.2412 17.9123 17.3573 17.8644 17.4444 17.7775C17.5313 17.6904 17.5792 17.5743 17.5792 17.4506V13.1097C17.5792 12.9651 17.6963 12.8478 17.8411 12.8478C17.9857 12.8478 18.103 12.9649 18.103 13.1097L18.1028 16.606V16.6467C18.1028 16.901 18.3099 17.1081 18.5646 17.1081C18.6881 17.1081 18.8039 17.0601 18.8915 16.9728C18.9784 16.8861 19.0263 16.7703 19.0263 16.6465V13.1095C19.0263 12.9649 19.1434 12.8476 19.2882 12.8476C19.4328 12.8476 19.5501 12.9647 19.5501 13.1095L19.5497 15.7793C19.5497 16.034 19.7568 16.2411 20.0112 16.2411C20.135 16.2411 20.2508 16.1931 20.3377 16.1063C20.4249 16.0191 20.4727 15.903 20.4727 15.7793L20.4728 10.3678C20.4728 8.5631 19.137 7.09452 17.4949 7.09452L17.4949 7.09447Z" fill="#4CAF4F"/>
    <path d="M20.0112 16.7646V15.8365H23.2902L20.4976 17.555L20.0112 16.7646ZM19.5497 16.6444H18.6216V15.0937L19.9883 15.8265L19.5497 16.6444ZM19.2613 17.3432L18.605 16.6869L18.6059 16.6861L19.2613 17.3432ZM18.0971 17.5083L17.1706 17.4542L17.256 15.9935L18.5409 16.6933L18.0971 17.5083ZM17.8145 18.1473L18.4711 18.8032L18.4708 18.8035L17.8145 18.1473ZM16.138 17.5082L15.6967 16.6917L16.9781 15.9992L17.0645 17.4531L16.138 17.5082ZM15.6039 17.6295L15.5444 18.5557L15.5431 18.5556L15.6039 17.6295ZM14.6853 12.1844L13.8815 11.7204L15.6134 8.72004V12.1844H14.6853ZM14.1807 13.0586L13.3761 12.5961L13.3769 12.5947L14.1807 13.0586ZM12.701 13.4565L12.2396 14.2618L12.2355 14.2594L12.701 13.4565ZM12.2871 12.9169L13.1835 12.6763L13.1837 12.6774L12.2871 12.9169ZM12.3763 12.2429L11.5731 11.7779L11.8412 11.3148H12.3763V12.2429ZM14.1281 9.2084L14.9734 9.59166L14.9551 9.63185L14.9332 9.67013L14.1281 9.2084ZM14.2032 9.04015L13.3552 8.66302L13.3552 8.66301L14.2032 9.04015ZM14.2775 8.84959L15.1523 9.15946L15.1522 9.15972L14.2775 8.84959ZM20.9963 10.3677L20.0682 10.3677V10.3677H20.9963ZM20.9964 15.7792L21.9245 15.7792V15.7792H20.9964ZM20.7083 16.4762L21.3652 17.1318L21.3645 17.1324L20.7083 16.4762ZM20.0112 16.7646V17.6927H16.7322L19.5248 15.9742L20.0112 16.7646ZM17.4949 7.09447V6.16638H18.7253L18.3873 7.34944L17.4949 7.09447ZM14.771 9.02468L15.6458 9.3346L15.6451 9.3366L14.771 9.02468ZM14.6818 9.25296L15.5296 9.63041L15.5294 9.6309L14.6818 9.25296ZM14.5579 9.50075L15.2568 10.1114L14.6497 10.8063L13.9513 10.2031L14.5579 9.50075ZM14.5543 9.49763L13.7343 9.06303L14.2796 8.03407L15.1609 8.79523L14.5543 9.49763ZM12.8296 12.5049L13.6333 12.9691L13.6329 12.9698L12.8296 12.5049ZM12.7927 12.7813L11.8965 13.0225L11.8958 13.0196L12.7927 12.7813ZM12.9623 13.0025L12.5 13.8073L12.4983 13.8063L12.9623 13.0025ZM13.7268 12.7972L12.9219 12.3352L12.9232 12.333L13.7268 12.7972ZM14.7205 11.0769L13.9168 10.6127L13.9174 10.6117L14.7205 11.0769ZM15.015 10.9552L14.7748 11.8517L14.7725 11.851L15.015 10.9552ZM15.6382 17.1072L15.5892 18.034L15.5772 18.0333L15.6382 17.1072ZM15.9975 16.9732L16.6537 17.6295L16.6532 17.63L15.9975 16.9732ZM16.6561 13.1097H17.5842V13.1097L16.6561 13.1097ZM16.6559 17.4506H15.7278V17.4506L16.6559 17.4506ZM17.4444 17.7775L18.1013 18.4331L18.1 18.4344L17.4444 17.7775ZM18.103 13.1097H19.0311V13.1097L18.103 13.1097ZM18.1028 16.606H17.1747V16.606L18.1028 16.606ZM18.8915 16.9728L19.5471 17.6297L19.5465 17.6303L18.8915 16.9728ZM19.5501 13.1095H20.4781V13.1096L19.5501 13.1095ZM19.5497 15.7793H18.6216V15.7792L19.5497 15.7793ZM20.3377 16.1063L20.994 16.7626L20.9933 16.7632L20.3377 16.1063ZM20.4727 15.7793H19.5446V15.7793L20.4727 15.7793ZM20.4728 10.3678H21.4009V10.3679L20.4728 10.3678ZM17.4949 7.09452V8.02262H16.2645L16.6025 6.83956L17.4949 7.09452ZM20.0112 17.6927C19.6695 17.6927 19.3644 17.5981 19.1112 17.4623L19.9883 15.8265C20.0003 15.8329 20.0079 15.8354 20.0109 15.8362C20.0135 15.8369 20.0132 15.8365 20.0112 15.8365V17.6927ZM20.4778 16.6444V16.6464H18.6216V16.6444H20.4778ZM20.4778 16.6464C20.4778 17.1555 20.2781 17.6399 19.9167 18.0003L18.6059 16.6861C18.6125 16.6795 18.6158 16.6738 18.6177 16.6692C18.6196 16.6645 18.6216 16.6574 18.6216 16.6464H20.4778ZM19.9175 17.9995C19.5574 18.3596 19.0738 18.5598 18.5645 18.5598V16.7036C18.5751 16.7036 18.5821 16.7016 18.5869 16.6997C18.5916 16.6977 18.5978 16.6942 18.605 16.6869L19.9175 17.9995ZM18.5645 18.5598C18.2183 18.5598 17.9093 18.4629 17.6532 18.3234L18.5409 16.6933C18.553 16.6999 18.5607 16.7024 18.5637 16.7032C18.5663 16.7039 18.5661 16.7036 18.5645 16.7036V18.5598ZM19.0236 17.5625C18.9969 18.0193 18.8116 18.4624 18.4711 18.8032L17.1579 17.4914C17.1614 17.4879 17.1633 17.4849 17.165 17.481C17.1669 17.4768 17.1697 17.4683 17.1706 17.4542L19.0236 17.5625ZM18.4708 18.8035C18.1105 19.1638 17.6269 19.3638 17.1175 19.3638V17.5076C17.1283 17.5076 17.1354 17.5057 17.1401 17.5037C17.1449 17.5017 17.151 17.4983 17.1583 17.491L18.4708 18.8035ZM17.1175 19.3638C16.0929 19.3638 15.2707 18.5597 15.2115 17.5632L17.0645 17.4531C17.0654 17.4689 17.0719 17.4828 17.0833 17.4937C17.0889 17.499 17.0945 17.5024 17.0994 17.5044C17.1037 17.5062 17.1092 17.5076 17.1175 17.5076V19.3638ZM16.5793 18.3247C16.2795 18.4867 15.9241 18.5801 15.5444 18.5557L15.6634 16.7033C15.6634 16.7033 15.6654 16.7035 15.6703 16.7024C15.6755 16.7012 15.6846 16.6983 15.6967 16.6917L16.5793 18.3247ZM15.5431 18.5556C14.5126 18.4881 13.7572 17.6117 13.7572 16.616H15.6134C15.6134 16.6474 15.6248 16.6716 15.6391 16.6873C15.653 16.7027 15.6625 16.7033 15.6646 16.7034L15.5431 18.5556ZM13.7572 16.616V12.1844H15.6134V16.616H13.7572ZM15.4891 12.6484L14.9845 13.5226L13.3769 12.5947L13.8815 11.7204L15.4891 12.6484ZM14.9854 13.5211C14.6267 14.1451 13.9592 14.5287 13.2414 14.5287V12.6725C13.2983 12.6725 13.3503 12.641 13.3761 12.5961L14.9854 13.5211ZM13.2414 14.5287C12.8904 14.5287 12.5449 14.4367 12.2396 14.2618L13.1624 12.6512C13.1874 12.6655 13.2148 12.6725 13.2414 12.6725V14.5287ZM12.2355 14.2594C11.8188 14.0178 11.5156 13.6247 11.3905 13.1565L13.1837 12.6774C13.1829 12.6742 13.1806 12.6686 13.1761 12.6628C13.1717 12.657 13.1676 12.6542 13.1665 12.6536L12.2355 14.2594ZM11.3907 13.1575C11.2651 12.6897 11.3309 12.1962 11.5731 11.7779L13.1795 12.708C13.1808 12.7057 13.1831 12.7004 13.1841 12.6929C13.1851 12.6854 13.1843 12.6794 13.1835 12.6763L11.3907 13.1575ZM12.3763 11.3148C11.921 11.4342 11.5803 11.7657 11.5777 11.77C11.5769 11.7714 11.5756 11.7736 11.5752 11.7743C11.575 11.7747 11.5746 11.7754 11.5745 11.7756C11.5744 11.7757 11.5742 11.776 11.5742 11.7761C11.574 11.7763 11.5741 11.7762 11.5744 11.7756C11.5751 11.7745 11.5761 11.7727 11.5777 11.7701C11.5807 11.7648 11.5853 11.7569 11.5913 11.7464C11.6034 11.7255 11.6212 11.6947 11.6438 11.6555C11.6892 11.577 11.7541 11.4647 11.8322 11.3293C11.9886 11.0586 12.1981 10.6958 12.4107 10.3275C12.8368 9.58959 13.2735 8.83294 13.323 8.74668L14.9332 9.67013C14.8819 9.75948 14.4429 10.5201 14.0182 11.2556C13.8056 11.6239 13.596 11.9868 13.4396 12.2576C13.3614 12.393 13.2965 12.5054 13.2511 12.5839C13.2285 12.6232 13.2106 12.6541 13.1985 12.6751C13.1924 12.6856 13.1877 12.6938 13.1845 12.6994C13.1829 12.7021 13.1816 12.7044 13.1806 12.706C13.1801 12.7068 13.1796 12.7078 13.1791 12.7087C13.1789 12.709 13.1783 12.7101 13.1775 12.7113C13.1771 12.7121 13.1758 12.7143 13.1749 12.7157C13.1723 12.7201 12.8316 13.0517 12.3763 13.171V11.3148ZM13.2828 8.82515C13.293 8.80261 13.3254 8.72997 13.3552 8.66302L15.0512 9.41728C15.0229 9.48087 14.9871 9.56139 14.9734 9.59166L13.2828 8.82515ZM13.3552 8.66301C13.3681 8.63401 13.3824 8.59695 13.4027 8.53946L15.1522 9.15972C15.127 9.23081 15.0937 9.32165 15.0512 9.41729L13.3552 8.66301ZM13.4027 8.53971C14.0312 6.7651 15.6134 5.64283 17.4949 5.64283V7.49902C16.4028 7.49902 15.5195 8.12296 15.1523 9.15946L13.4027 8.53971ZM17.4949 5.64283C20.0075 5.64283 21.9244 7.83377 21.9244 10.3677H20.0682C20.0682 8.71451 18.8436 7.49902 17.4949 7.49902V5.64283ZM21.9244 10.3677L21.9245 15.7792L20.0683 15.7792L20.0682 10.3677L21.9244 10.3677ZM21.9245 15.7792C21.9245 16.2881 21.7248 16.7715 21.3652 17.1318L20.0514 15.8205C20.0588 15.8132 20.0623 15.8069 20.0643 15.8021C20.0664 15.7972 20.0683 15.79 20.0683 15.7792H21.9245ZM21.3645 17.1324C21.0043 17.4927 20.5207 17.6927 20.0112 17.6927V15.8365C20.0221 15.8365 20.0292 15.8346 20.0339 15.8326C20.0387 15.8306 20.0448 15.8272 20.052 15.8199L21.3645 17.1324ZM19.5248 15.9742L19.5248 15.9742L20.4976 17.555L20.4976 17.5551L19.5248 15.9742ZM17.4949 8.02256C16.6125 8.02256 15.9434 8.4946 15.6458 9.3346L13.8961 8.71476C14.4549 7.13751 15.8223 6.16638 17.4949 6.16638V8.02256ZM15.6451 9.3366C15.6158 9.4187 15.5777 9.52238 15.5296 9.63041L13.8339 8.8755C13.8524 8.83397 13.8714 8.78416 13.8969 8.71276L15.6451 9.3366ZM15.5294 9.6309C15.4869 9.72622 15.4513 9.80672 15.424 9.86125C15.4071 9.89509 15.3798 9.94725 15.3401 10.005C15.2998 10.0636 15.2601 10.1077 15.2568 10.1114L13.859 8.89009C13.8612 8.8876 13.8605 8.88841 13.8594 8.88969C13.858 8.89134 13.8544 8.89554 13.8496 8.90131C13.8447 8.90729 13.8386 8.915 13.8316 8.92418C13.8246 8.93344 13.8175 8.94329 13.8103 8.95368C13.7958 8.97484 13.7846 8.99337 13.7766 9.00739C13.7692 9.02047 13.7646 9.02953 13.7636 9.03157C13.7626 9.03367 13.7632 9.03243 13.7664 9.02568C13.7694 9.01914 13.7738 9.00972 13.78 8.996C13.7861 8.9824 13.7935 8.96599 13.8026 8.94569C13.8116 8.92543 13.822 8.90222 13.8341 8.87501L15.5294 9.6309ZM13.9513 10.2031L13.9477 10.2L15.1609 8.79523L15.1646 8.79835L13.9513 10.2031ZM15.3744 9.93223C15.2291 10.2063 14.8144 10.924 13.6333 12.9691L12.0259 12.0408C13.2237 9.96697 13.6099 9.29766 13.7343 9.06303L15.3744 9.93223ZM13.6329 12.9698C13.7072 12.8414 13.7279 12.6866 13.6897 12.5429L11.8958 13.0196C11.8077 12.6883 11.8543 12.3373 12.0263 12.0401L13.6329 12.9698ZM13.6889 12.54C13.6507 12.3981 13.5568 12.2741 13.4263 12.1987L12.4983 13.8063C12.2001 13.6341 11.9852 13.352 11.8965 13.0225L13.6889 12.54ZM13.4246 12.1977C13.3189 12.137 13.2162 12.1374 13.1452 12.1565C13.0745 12.1756 12.9839 12.2271 12.9219 12.3352L14.5318 13.2591C14.1273 13.9639 13.2029 14.211 12.5 13.8073L13.4246 12.1977ZM12.9232 12.333L13.9168 10.6127L15.5241 11.5411L14.5305 13.2614L12.9232 12.333ZM13.9174 10.6117C14.1854 10.1489 14.7326 9.91727 15.2575 10.0593L14.7725 11.851C15.0671 11.9308 15.3742 11.7999 15.5236 11.542L13.9174 10.6117ZM15.2552 10.0587C15.7758 10.1982 16.1371 10.67 16.1371 11.2081H14.2809C14.2809 11.5093 14.4831 11.7735 14.7748 11.8517L15.2552 10.0587ZM16.1371 11.2081V16.6162H14.2809V11.2081H16.1371ZM16.1371 16.6162C16.1371 16.5104 16.0979 16.4143 16.0336 16.3407C15.9694 16.2673 15.8561 16.1914 15.6991 16.1811L15.5772 18.0333C14.7959 17.9818 14.2809 17.3013 14.2809 16.6162H16.1371ZM15.6872 16.1804C15.5775 16.1746 15.4436 16.2147 15.3418 16.3164L16.6532 17.63C16.3602 17.9225 15.9717 18.0542 15.5892 18.034L15.6872 16.1804ZM15.3412 16.3169C15.2531 16.405 15.2042 16.5257 15.2042 16.6467H17.0604C17.0604 17.0153 16.9157 17.3675 16.6537 17.6295L15.3412 16.3169ZM15.2042 16.6467V13.1097H17.0604V16.6467H15.2042ZM15.2042 13.1097C15.2042 12.4525 15.737 11.9197 16.3942 11.9197V13.7759C16.7621 13.7759 17.0604 13.4776 17.0604 13.1097H15.2042ZM16.3942 11.9197C17.051 11.9197 17.5842 12.4519 17.5842 13.1097H15.728C15.728 13.4778 16.0266 13.7759 16.3942 13.7759V11.9197ZM17.5842 13.1097L17.584 17.4507L15.7278 17.4506L15.728 13.1097L17.5842 13.1097ZM17.584 17.4506C17.584 17.1926 17.3756 16.9842 17.1175 16.9842V18.8404C16.3505 18.8404 15.7278 18.2177 15.7278 17.4506H17.584ZM17.1175 16.9842C16.9968 16.9842 16.8767 17.0329 16.7888 17.1206L18.1 18.4344C17.8379 18.6959 17.4856 18.8404 17.1175 18.8404V16.9842ZM16.7875 17.1218C16.6998 17.2097 16.6511 17.3299 16.6511 17.4506H18.5073C18.5073 17.8187 18.3628 18.171 18.1013 18.4331L16.7875 17.1218ZM16.6511 17.4506V13.1097H18.5073V17.4506H16.6511ZM16.6511 13.1097C16.6511 12.4529 17.1833 11.9197 17.8411 11.9197V13.7759C18.2092 13.7759 18.5073 13.4772 18.5073 13.1097H16.6511ZM17.8411 11.9197C18.4979 11.9197 19.0311 12.4519 19.0311 13.1097H17.1749C17.1749 13.4778 17.4735 13.7759 17.8411 13.7759V11.9197ZM19.0311 13.1097L19.0309 16.606L17.1747 16.606L17.1749 13.1096L19.0311 13.1097ZM19.0309 16.606V16.6467H17.1747V16.606H19.0309ZM19.0309 16.6467C19.0309 16.388 18.8221 16.18 18.5646 16.18V18.0362C17.7978 18.0362 17.1747 17.414 17.1747 16.6467H19.0309ZM18.5646 16.18C18.4413 16.18 18.3219 16.2302 18.2364 16.3154L19.5465 17.6303C19.2859 17.89 18.9349 18.0362 18.5646 18.0362V16.18ZM18.2358 16.316C18.147 16.4046 18.0982 16.5257 18.0982 16.6465H19.9544C19.9544 17.015 19.8097 17.3676 19.5471 17.6297L18.2358 16.316ZM18.0982 16.6465V13.1095H19.9544V16.6465H18.0982ZM18.0982 13.1095C18.0982 12.4527 18.6304 11.9195 19.2882 11.9195V13.7757C19.6563 13.7757 19.9544 13.4771 19.9544 13.1095H18.0982ZM19.2882 11.9195C19.945 11.9195 20.4781 12.4518 20.4781 13.1095H18.622C18.622 13.4777 18.9206 13.7757 19.2882 13.7757V11.9195ZM20.4781 13.1096L20.4778 15.7794L18.6216 15.7792L18.622 13.1094L20.4781 13.1096ZM20.4778 15.7793C20.4778 15.5219 20.2699 15.313 20.0112 15.313V17.1692C19.2438 17.1692 18.6216 16.5461 18.6216 15.7793H20.4778ZM20.0112 15.313C19.8894 15.313 19.7693 15.3623 19.6821 15.4494L20.9933 16.7632C20.7322 17.0238 20.3806 17.1692 20.0112 17.1692V15.313ZM19.6814 15.4501C19.5931 15.5384 19.5446 15.659 19.5446 15.7793H21.4008C21.4008 16.1469 21.2568 16.4997 20.994 16.7626L19.6814 15.4501ZM19.5446 15.7793L19.5447 10.3678L21.4009 10.3679L21.4008 15.7793L19.5446 15.7793ZM19.5447 10.3678C19.5447 8.99109 18.5437 8.02262 17.4949 8.02262V6.16643C19.7302 6.16643 21.4009 8.13511 21.4009 10.3678H19.5447ZM16.6025 6.83956L16.6025 6.8395L18.3873 7.34944L18.3873 7.34949L16.6025 6.83956Z" fill="#4CAF4F" mask="url(#path-1-inside-1_211_2338)"/>
    <path d="M8.63098 18.5527L8.57922 18.5253C8.56695 18.5474 8.5325 18.6093 8.48157 18.7011C8.49966 18.7101 8.51798 18.7177 8.53625 18.7245C8.5674 18.6684 8.59863 18.611 8.63098 18.5527Z" fill="#4CAF4F" stroke="#4CAF4F" stroke-width="0.928093"/>
    <mask id="path-4-inside-2_211_2338" fill="white">
    <path d="M27.8812 25.8226C27.3979 26.6287 26.6031 27.1803 25.6429 27.3765C24.6912 27.5705 23.6904 27.3916 22.8242 26.8722L18.1835 24.0883C17.9577 23.9528 17.7979 23.7377 17.734 23.4821C17.6705 23.2271 17.7102 22.9623 17.8455 22.7366C17.9299 22.5956 18.0483 22.4844 18.1856 22.4022L18.1843 22.4014C17.9585 22.266 17.7988 22.0508 17.7351 21.7956C17.6712 21.5405 17.7109 21.2754 17.8463 21.0495C17.9336 20.9043 18.0531 20.7909 18.1896 20.7103C17.9915 20.5741 17.8488 20.3761 17.7901 20.1413C17.7261 19.8859 17.7658 19.6211 17.9013 19.3954C18.0366 19.1696 18.2519 19.01 18.5071 18.9463C18.5868 18.9262 18.6676 18.9164 18.7476 18.9164C18.9047 18.9166 19.0589 18.9564 19.2006 19.0305C19.2093 18.847 19.2639 18.6668 19.3711 18.5122C19.6652 18.0879 20.2542 17.9705 20.7131 18.2458L24.5133 20.5253L24.0235 19.643C23.8355 19.3062 23.8424 18.8906 24.0417 18.5584C24.1387 18.3967 24.2775 18.2624 24.4433 18.1694C24.5796 18.094 24.7272 18.0582 24.8728 18.0582C25.1855 18.0584 25.4892 18.2233 25.6509 18.5154C26.2144 19.5307 27.2777 21.4455 27.3525 21.5792C27.3684 21.6023 27.4164 21.6712 27.4576 21.7297C27.4968 21.7853 27.5391 21.8384 27.5829 21.8912C28.5318 23.0415 28.6462 24.5477 27.8812 25.8227L27.8812 25.8226ZM27.1789 22.225C27.1267 22.1619 27.0755 22.0974 27.029 22.031C26.8873 21.8299 26.8837 21.8247 26.873 21.772C26.7074 21.498 26.3033 20.7706 25.1926 18.7695C25.0952 18.5938 24.8738 18.5297 24.6975 18.6271C24.6107 18.6757 24.541 18.7434 24.4902 18.8282C24.3872 18.9999 24.3833 19.2144 24.4805 19.3886L25.4445 21.1254C25.502 21.2291 25.4829 21.3583 25.3977 21.4406C25.3128 21.5231 25.1829 21.5375 25.0809 21.4768L20.4436 18.6949C20.225 18.5638 19.9368 18.6152 19.8017 18.8103C19.724 18.9225 19.6992 19.0563 19.7317 19.187C19.7615 19.3064 19.8365 19.4071 19.9426 19.4707C19.9429 19.4709 19.9431 19.4712 19.9434 19.4714L22.9755 21.2904C23.0994 21.3648 23.1396 21.5255 23.0652 21.6497C22.9907 21.7735 22.8302 21.814 22.7059 21.7394L18.9834 19.5063C18.8778 19.443 18.7535 19.4243 18.6341 19.4543C18.5144 19.4842 18.4137 19.5589 18.3502 19.6651C18.2866 19.7708 18.2682 19.895 18.2977 20.0144C18.3276 20.1337 18.4025 20.2346 18.5085 20.2982L19.2328 20.7327L22.2308 22.5313C22.3547 22.6058 22.3949 22.7665 22.3205 22.8906C22.246 23.0145 22.0855 23.0548 21.9612 22.9803L18.9285 21.1608C18.7104 21.0296 18.4263 21.1008 18.2951 21.3193C18.2315 21.4252 18.2131 21.5493 18.2426 21.6687C18.2725 21.7881 18.3474 21.8888 18.4535 21.9526L19.1971 22.3987L21.4862 23.7721C21.6102 23.8465 21.6504 24.0073 21.5759 24.1314C21.5015 24.2552 21.3409 24.2959 21.2166 24.2211L18.9275 22.8477C18.8219 22.7844 18.6981 22.7657 18.578 22.7957C18.4586 22.8255 18.3576 22.9003 18.2941 23.0061C18.2307 23.112 18.2121 23.2363 18.2417 23.3555C18.2715 23.4749 18.3465 23.5756 18.4526 23.6394L23.0933 26.4233C23.8463 26.8751 24.7148 27.0316 25.5377 26.8636C26.3521 26.6974 27.0248 26.2321 27.4319 25.5535C28.0896 24.4577 27.995 23.2133 27.1791 22.225L27.1789 22.225Z"/>
    </mask>
    <path d="M27.8812 25.8226C27.3979 26.6287 26.6031 27.1803 25.6429 27.3765C24.6912 27.5705 23.6904 27.3916 22.8242 26.8722L18.1835 24.0883C17.9577 23.9528 17.7979 23.7377 17.734 23.4821C17.6705 23.2271 17.7102 22.9623 17.8455 22.7366C17.9299 22.5956 18.0483 22.4844 18.1856 22.4022L18.1843 22.4014C17.9585 22.266 17.7988 22.0508 17.7351 21.7956C17.6712 21.5405 17.7109 21.2754 17.8463 21.0495C17.9336 20.9043 18.0531 20.7909 18.1896 20.7103C17.9915 20.5741 17.8488 20.3761 17.7901 20.1413C17.7261 19.8859 17.7658 19.6211 17.9013 19.3954C18.0366 19.1696 18.2519 19.01 18.5071 18.9463C18.5868 18.9262 18.6676 18.9164 18.7476 18.9164C18.9047 18.9166 19.0589 18.9564 19.2006 19.0305C19.2093 18.847 19.2639 18.6668 19.3711 18.5122C19.6652 18.0879 20.2542 17.9705 20.7131 18.2458L24.5133 20.5253L24.0235 19.643C23.8355 19.3062 23.8424 18.8906 24.0417 18.5584C24.1387 18.3967 24.2775 18.2624 24.4433 18.1694C24.5796 18.094 24.7272 18.0582 24.8728 18.0582C25.1855 18.0584 25.4892 18.2233 25.6509 18.5154C26.2144 19.5307 27.2777 21.4455 27.3525 21.5792C27.3684 21.6023 27.4164 21.6712 27.4576 21.7297C27.4968 21.7853 27.5391 21.8384 27.5829 21.8912C28.5318 23.0415 28.6462 24.5477 27.8812 25.8227L27.8812 25.8226ZM27.1789 22.225C27.1267 22.1619 27.0755 22.0974 27.029 22.031C26.8873 21.8299 26.8837 21.8247 26.873 21.772C26.7074 21.498 26.3033 20.7706 25.1926 18.7695C25.0952 18.5938 24.8738 18.5297 24.6975 18.6271C24.6107 18.6757 24.541 18.7434 24.4902 18.8282C24.3872 18.9999 24.3833 19.2144 24.4805 19.3886L25.4445 21.1254C25.502 21.2291 25.4829 21.3583 25.3977 21.4406C25.3128 21.5231 25.1829 21.5375 25.0809 21.4768L20.4436 18.6949C20.225 18.5638 19.9368 18.6152 19.8017 18.8103C19.724 18.9225 19.6992 19.0563 19.7317 19.187C19.7615 19.3064 19.8365 19.4071 19.9426 19.4707C19.9429 19.4709 19.9431 19.4712 19.9434 19.4714L22.9755 21.2904C23.0994 21.3648 23.1396 21.5255 23.0652 21.6497C22.9907 21.7735 22.8302 21.814 22.7059 21.7394L18.9834 19.5063C18.8778 19.443 18.7535 19.4243 18.6341 19.4543C18.5144 19.4842 18.4137 19.5589 18.3502 19.6651C18.2866 19.7708 18.2682 19.895 18.2977 20.0144C18.3276 20.1337 18.4025 20.2346 18.5085 20.2982L19.2328 20.7327L22.2308 22.5313C22.3547 22.6058 22.3949 22.7665 22.3205 22.8906C22.246 23.0145 22.0855 23.0548 21.9612 22.9803L18.9285 21.1608C18.7104 21.0296 18.4263 21.1008 18.2951 21.3193C18.2315 21.4252 18.2131 21.5493 18.2426 21.6687C18.2725 21.7881 18.3474 21.8888 18.4535 21.9526L19.1971 22.3987L21.4862 23.7721C21.6102 23.8465 21.6504 24.0073 21.5759 24.1314C21.5015 24.2552 21.3409 24.2959 21.2166 24.2211L18.9275 22.8477C18.8219 22.7844 18.6981 22.7657 18.578 22.7957C18.4586 22.8255 18.3576 22.9003 18.2941 23.0061C18.2307 23.112 18.2121 23.2363 18.2417 23.3555C18.2715 23.4749 18.3465 23.5756 18.4526 23.6394L23.0933 26.4233C23.8463 26.8751 24.7148 27.0316 25.5377 26.8636C26.3521 26.6974 27.0248 26.2321 27.4319 25.5535C28.0896 24.4577 27.995 23.2133 27.1791 22.225L27.1789 22.225Z" fill="#4CAF4F"/>
    <path d="M27.8812 25.8226L27.5817 24.9442L29.9804 24.1265L28.6772 26.2999L27.8812 25.8226ZM25.6429 27.3765L25.8286 28.2858L25.8283 28.2859L25.6429 27.3765ZM22.8242 26.8722L22.3469 27.6682L22.3467 27.6681L22.8242 26.8722ZM18.1835 24.0883L18.6609 23.2924L18.6609 23.2924L18.1835 24.0883ZM17.734 23.4821L16.8337 23.7075L16.8334 23.7063L17.734 23.4821ZM17.8455 22.7366L18.6417 23.2134L18.6415 23.2139L17.8455 22.7366ZM18.1856 22.4022L18.6775 21.6152L19.9641 22.4194L18.6623 23.1986L18.1856 22.4022ZM18.1843 22.4014L18.6617 21.6055L18.669 21.6099L18.6762 21.6144L18.1843 22.4014ZM17.7351 21.7956L18.6354 21.57L18.6357 21.5711L17.7351 21.7956ZM17.8463 21.0495L17.0503 20.5723L17.0509 20.5713L17.8463 21.0495ZM18.1896 20.7103L18.7156 19.9457L19.9142 20.7702L18.6612 21.5096L18.1896 20.7103ZM17.7901 20.1413L18.6904 19.9158L18.6905 19.9162L17.7901 20.1413ZM17.9013 19.3954L18.6974 19.8724L18.697 19.8731L17.9013 19.3954ZM18.5071 18.9463L18.733 19.8464L18.7321 19.8466L18.5071 18.9463ZM18.7476 18.9164V17.9883L18.7486 17.9883L18.7476 18.9164ZM19.2006 19.0305L20.1276 19.0745L20.0588 20.527L18.7703 19.8529L19.2006 19.0305ZM19.3711 18.5122L20.1339 19.0408L20.1338 19.041L19.3711 18.5122ZM20.7131 18.2458L20.2357 19.0417L20.2356 19.0417L20.7131 18.2458ZM24.5133 20.5253L25.3247 20.0748L27.0058 23.1026L24.0359 21.3212L24.5133 20.5253ZM24.0235 19.643L24.8339 19.1908L24.8349 19.1925L24.0235 19.643ZM24.0417 18.5584L23.2457 18.0811L23.246 18.0806L24.0417 18.5584ZM24.4433 18.1694L23.9893 17.3599L23.9938 17.3574L24.4433 18.1694ZM24.8728 18.0582V17.1301L24.8732 17.1301L24.8728 18.0582ZM25.6509 18.5154L24.8394 18.9658L24.8389 18.9649L25.6509 18.5154ZM27.3525 21.5792L26.5878 22.1052L26.5635 22.0698L26.5425 22.0322L27.3525 21.5792ZM27.4576 21.7297L26.6991 22.2645L26.6984 22.2635L27.4576 21.7297ZM27.5829 21.8912L28.2973 21.2988L28.2988 21.3006L27.5829 21.8912ZM27.8812 25.8227L28.1807 26.7011L25.7808 27.5192L27.0854 25.3451L27.8812 25.8227ZM27.1789 22.225L27.2708 23.1485L26.7784 23.1975L26.4633 22.816L27.1789 22.225ZM27.029 22.031L27.7876 21.4964L27.7888 21.4981L27.029 22.031ZM26.873 21.772L27.6673 21.292L27.7507 21.4299L27.7826 21.5878L26.873 21.772ZM25.1926 18.7695L24.3811 19.2199L24.381 19.2196L25.1926 18.7695ZM24.6975 18.6271L24.2443 17.8172L24.2486 17.8148L24.6975 18.6271ZM24.4902 18.8282L25.2862 19.3054L25.2861 19.3056L24.4902 18.8282ZM24.4805 19.3886L25.2909 18.9361L25.292 18.9382L24.4805 19.3886ZM25.4445 21.1254L24.6331 21.576L24.633 21.5758L25.4445 21.1254ZM25.3977 21.4406L24.7512 20.7748L24.7525 20.7735L25.3977 21.4406ZM25.0809 21.4768L24.6064 22.2745L24.6035 22.2727L25.0809 21.4768ZM20.4436 18.6949L20.9207 17.8988L20.921 17.899L20.4436 18.6949ZM19.8017 18.8103L20.5647 19.3387L20.5645 19.3389L19.8017 18.8103ZM19.7317 19.187L18.8313 19.4121L18.831 19.4108L19.7317 19.187ZM19.9426 19.4707L19.5274 20.3008L19.4957 20.2849L19.4653 20.2667L19.9426 19.4707ZM19.9434 19.4714L20.3585 18.6413L20.3903 18.6572L20.4208 18.6755L19.9434 19.4714ZM22.9755 21.2904L23.4529 20.4945L23.4533 20.4947L22.9755 21.2904ZM23.0652 21.6497L23.8611 22.127L23.8605 22.1279L23.0652 21.6497ZM22.7059 21.7394L23.1833 20.9435L23.1835 20.9436L22.7059 21.7394ZM18.9834 19.5063L19.4605 18.7103L19.4608 18.7104L18.9834 19.5063ZM18.6341 19.4543L18.8603 20.3544L18.8586 20.3548L18.6341 19.4543ZM18.3502 19.6651L19.1467 20.1415L19.1455 20.1435L18.3502 19.6651ZM18.2977 20.0144L17.3974 20.2394L17.3968 20.2371L18.2977 20.0144ZM18.5085 20.2982L18.0311 21.0941L18.0306 21.0938L18.5085 20.2982ZM19.2328 20.7327L19.7102 19.9367L19.7103 19.9368L19.2328 20.7327ZM22.2308 22.5313L22.7083 21.7355L22.7086 21.7357L22.2308 22.5313ZM22.3205 22.8906L23.1164 23.368L23.1158 23.3689L22.3205 22.8906ZM21.9612 22.9803L21.4843 23.7765L21.4837 23.7762L21.9612 22.9803ZM18.9285 21.1608L18.451 21.9567L18.4501 21.9561L18.9285 21.1608ZM18.2951 21.3193L19.0907 21.7971L19.0907 21.7971L18.2951 21.3193ZM18.2426 21.6687L17.3423 21.8938L17.3417 21.8915L18.2426 21.6687ZM18.4535 21.9526L17.9761 22.7485L17.9753 22.748L18.4535 21.9526ZM19.1971 22.3987L19.6745 21.6028L19.6746 21.6028L19.1971 22.3987ZM21.4862 23.7721L21.9637 22.9763L21.964 22.9764L21.4862 23.7721ZM21.5759 24.1314L22.3719 24.6088L22.3713 24.6097L21.5759 24.1314ZM21.2166 24.2211L21.6941 23.4253L21.6951 23.4258L21.2166 24.2211ZM18.9275 22.8477L19.4046 22.0516L19.405 22.0518L18.9275 22.8477ZM18.578 22.7957L18.3529 21.8953L18.3529 21.8953L18.578 22.7957ZM18.2941 23.0061L17.498 22.5291L17.4983 22.5286L18.2941 23.0061ZM18.2417 23.3555L17.3413 23.5806L17.3408 23.5786L18.2417 23.3555ZM18.4526 23.6394L17.9751 24.4353L17.9743 24.4348L18.4526 23.6394ZM23.0933 26.4233L23.5707 25.6275L23.5707 25.6275L23.0933 26.4233ZM25.5377 26.8636L25.7234 27.773L25.7233 27.773L25.5377 26.8636ZM27.4319 25.5535L26.6359 25.0761L26.6361 25.0759L27.4319 25.5535ZM27.1791 22.225L27.0872 21.3014L27.5798 21.2524L27.8949 21.6341L27.1791 22.225ZM28.6772 26.2999C28.0537 27.3398 27.0314 28.0401 25.8286 28.2858L25.4571 26.4672C26.1748 26.3206 26.7422 25.9175 27.0852 25.3454L28.6772 26.2999ZM25.8283 28.2859C24.6397 28.5282 23.4035 28.3017 22.3469 27.6682L23.3014 26.0762C23.9773 26.4815 24.7428 26.6128 25.4575 26.4671L25.8283 28.2859ZM22.3467 27.6681L17.706 24.8841L18.6609 23.2924L23.3016 26.0763L22.3467 27.6681ZM17.7061 24.8842C17.2696 24.6224 16.9575 24.2022 16.8337 23.7075L18.6343 23.2568C18.6368 23.2669 18.6403 23.2731 18.6434 23.2773C18.6466 23.2815 18.6517 23.2869 18.6609 23.2924L17.7061 24.8842ZM16.8334 23.7063C16.7104 23.2123 16.7882 22.6952 17.0495 22.2594L18.6415 23.2139C18.6359 23.2231 18.6339 23.2304 18.6331 23.2357C18.6323 23.2411 18.6322 23.2482 18.6346 23.258L16.8334 23.7063ZM17.0492 22.2598C17.2213 21.9724 17.4565 21.757 17.709 21.6059L18.6623 23.1986C18.651 23.2054 18.645 23.2106 18.6425 23.213C18.6404 23.2151 18.6407 23.2152 18.6417 23.2134L17.0492 22.2598ZM17.6937 23.1893L17.6924 23.1884L18.6762 21.6144L18.6775 21.6152L17.6937 23.1893ZM17.7069 23.1973C17.2706 22.9356 16.9581 22.5154 16.8346 22.0201L18.6357 21.5711C18.638 21.5805 18.6413 21.5865 18.6443 21.5905C18.6474 21.5946 18.6525 21.6 18.6617 21.6055L17.7069 23.1973ZM16.8349 22.0213C16.7108 21.5261 16.7889 21.0084 17.0503 20.5723L18.6423 21.5267C18.6367 21.5361 18.6346 21.5434 18.6339 21.5485C18.6331 21.5537 18.633 21.5605 18.6354 21.57L16.8349 22.0213ZM17.0509 20.5713C17.2222 20.2863 17.4563 20.0654 17.7179 19.911L18.6612 21.5096C18.6552 21.5132 18.6511 21.5165 18.6484 21.5192C18.6459 21.5217 18.6438 21.5243 18.6418 21.5276L17.0509 20.5713ZM17.6636 21.475C17.2887 21.2171 17.006 20.8317 16.8897 20.3664L18.6905 19.9162C18.6916 19.9206 18.693 19.9237 18.6954 19.9271C18.698 19.9308 18.7038 19.9376 18.7156 19.9457L17.6636 21.475ZM16.8898 20.3668C16.7658 19.8717 16.8437 19.354 17.1055 18.9178L18.697 19.8731C18.6915 19.8823 18.6895 19.8893 18.6888 19.8942C18.6881 19.8992 18.6879 19.906 18.6904 19.9158L16.8898 20.3668ZM17.1051 18.9184C17.3671 18.4812 17.7879 18.1694 18.282 18.0459L18.7321 19.8466C18.7222 19.8491 18.716 19.8526 18.7119 19.8556C18.7078 19.8587 18.7027 19.8636 18.6974 19.8724L17.1051 18.9184ZM18.2811 18.0461C18.4348 18.0075 18.5916 17.9883 18.7476 17.9883V19.8445C18.7436 19.8445 18.7387 19.845 18.733 19.8464L18.2811 18.0461ZM18.7486 17.9883C19.0639 17.9886 19.3645 18.0689 19.6308 18.2082L18.7703 19.8529C18.7615 19.8483 18.7552 19.8462 18.7517 19.8453C18.7483 19.8445 18.7468 19.8445 18.7467 19.8445L18.7486 17.9883ZM18.2735 18.9866C18.2895 18.6491 18.3913 18.2965 18.6085 17.9833L20.1338 19.041C20.1365 19.0371 20.129 19.045 20.1276 19.0745L18.2735 18.9866ZM18.6083 17.9835C19.1962 17.1353 20.3359 16.9372 21.1906 17.45L20.2356 19.0417C20.2085 19.0254 20.182 19.0228 20.1612 19.0269C20.1409 19.031 20.1353 19.0389 20.1339 19.0408L18.6083 17.9835ZM21.1905 17.4499L24.9907 19.7294L24.0359 21.3212L20.2357 19.0417L21.1905 17.4499ZM23.7019 20.9758L23.212 20.0935L24.8349 19.1925L25.3247 20.0748L23.7019 20.9758ZM23.213 20.0952C22.8624 19.4669 22.8764 18.6969 23.2457 18.0811L24.8376 19.0357C24.8084 19.0844 24.8086 19.1455 24.8339 19.1908L23.213 20.0952ZM23.246 18.0806C23.427 17.7792 23.6841 17.5311 23.9893 17.3599L24.8973 18.9789C24.8709 18.9937 24.8505 19.0142 24.8374 19.0361L23.246 18.0806ZM23.9938 17.3574C24.2715 17.2037 24.5744 17.1301 24.8728 17.1301V18.9863C24.876 18.9863 24.8796 18.9859 24.8835 18.9849C24.8876 18.9839 24.8908 18.9825 24.8928 18.9814L23.9938 17.3574ZM24.8732 17.1301C25.5075 17.1304 26.1303 17.465 26.4629 18.066L24.8389 18.9649C24.8404 18.9675 24.8428 18.971 24.8462 18.9744C24.8495 18.9777 24.8528 18.9802 24.8558 18.9819C24.861 18.9849 24.8663 18.9863 24.8723 18.9863L24.8732 17.1301ZM26.4624 18.0651C27.0265 19.0816 28.0887 20.9942 28.1625 21.1261L26.5425 22.0322C26.4667 21.8968 25.4022 19.9799 24.8394 18.9658L26.4624 18.0651ZM28.1171 21.0531C28.1302 21.0722 28.176 21.1379 28.2168 21.1959L26.6984 22.2635C26.6568 22.2044 26.6065 22.1324 26.5878 22.1052L28.1171 21.0531ZM28.2161 21.1949C28.2353 21.2221 28.2604 21.2543 28.2973 21.2989L26.8684 22.4836C26.8178 22.4226 26.7583 22.3485 26.6991 22.2645L28.2161 21.1949ZM28.2988 21.3006C29.4967 22.7528 29.6451 24.6868 28.677 26.3002L27.0854 25.3451C27.6473 24.4087 27.5668 23.3302 26.867 22.4818L28.2988 21.3006ZM27.5817 24.9442L27.5817 24.9442L28.1807 26.7011L28.1807 26.7011L27.5817 24.9442ZM26.4633 22.816C26.4046 22.745 26.3359 22.6592 26.2691 22.5639L27.7888 21.4981C27.8151 21.5356 27.8488 21.5787 27.8944 21.6339L26.4633 22.816ZM26.2703 22.5656C26.2119 22.4827 26.1491 22.3947 26.1074 22.3257C26.0795 22.2795 26.0422 22.2121 26.0107 22.1262C25.98 22.0426 25.9664 21.971 25.9634 21.9562L27.7826 21.5878C27.785 21.5994 27.7758 21.5482 27.7532 21.4866C27.7298 21.4228 27.7042 21.3792 27.6963 21.366C27.6925 21.3598 27.6911 21.3578 27.694 21.3622C27.6968 21.3664 27.7017 21.3737 27.71 21.3858C27.7274 21.4108 27.7512 21.4446 27.7876 21.4964L26.2703 22.5656ZM26.0787 22.2521C25.9014 21.9588 25.4841 21.207 24.3811 19.2199L26.0041 18.3191C27.1225 20.3341 27.5133 21.0373 27.6673 21.292L26.0787 22.2521ZM24.381 19.2196C24.5312 19.4906 24.8734 19.5903 25.1464 19.4395L24.2486 17.8148C24.8742 17.4691 25.6591 17.6971 26.0042 18.3193L24.381 19.2196ZM25.1507 19.4371C25.2052 19.4065 25.2537 19.3596 25.2862 19.3054L23.6942 18.3509C23.8284 18.1272 24.0163 17.9448 24.2443 17.8172L25.1507 19.4371ZM25.2861 19.3056C25.3526 19.1948 25.3571 19.0547 25.2909 18.9361L23.6702 19.841C23.4095 19.3741 23.4219 18.805 23.6943 18.3508L25.2861 19.3056ZM25.292 18.9382L26.256 20.675L24.633 21.5758L23.669 19.8389L25.292 18.9382ZM26.2558 20.6748C26.5171 21.1453 26.4304 21.733 26.043 22.1077L24.7525 20.7735C24.5354 20.9835 24.4869 21.3128 24.6331 21.576L26.2558 20.6748ZM26.0443 22.1064C25.6538 22.4856 25.0635 22.5464 24.6064 22.2745L25.5554 20.6792C25.3024 20.5287 24.9718 20.5606 24.7512 20.7748L26.0443 22.1064ZM24.6035 22.2727L19.9661 19.4907L20.921 17.899L25.5584 20.681L24.6035 22.2727ZM19.9664 19.4909C20.057 19.5452 20.1592 19.561 20.2552 19.5438C20.3511 19.5266 20.4749 19.4684 20.5647 19.3387L19.0387 18.2819C19.4854 17.6368 20.3348 17.5476 20.9207 17.8988L19.9664 19.4909ZM20.5645 19.3389C20.637 19.2344 20.665 19.0946 20.6324 18.9633L18.831 19.4108C18.7334 19.018 18.811 18.6106 19.0389 18.2817L20.5645 19.3389ZM20.6321 18.9619C20.6017 18.8404 20.5231 18.7367 20.4199 18.6748L19.4653 20.2667C19.1498 20.0775 18.9214 19.7724 18.8313 19.4121L20.6321 18.9619ZM20.3577 18.6406C20.4416 18.6826 20.5032 18.7293 20.5423 18.7624C20.5615 18.7786 20.5763 18.7925 20.5853 18.8011C20.5899 18.8055 20.5935 18.8091 20.5957 18.8113C20.5969 18.8124 20.5978 18.8133 20.5983 18.8139C20.5986 18.8141 20.5988 18.8144 20.599 18.8145C20.5991 18.8146 20.5991 18.8146 20.5992 18.8147C20.5992 18.8147 20.5992 18.8147 20.5992 18.8147C20.5992 18.8147 20.5992 18.8147 20.5992 18.8147C20.5992 18.8147 20.5992 18.8147 20.5992 18.8147C20.5995 18.815 20.5978 18.8133 20.5958 18.8114C20.5937 18.8092 20.59 18.8057 20.5855 18.8013C20.5766 18.7928 20.5618 18.7789 20.5427 18.7627C20.5038 18.7298 20.4422 18.6831 20.3585 18.6413L19.5283 20.3014C19.4444 20.2595 19.3827 20.2128 19.3437 20.1797C19.3245 20.1635 19.3096 20.1495 19.3007 20.1409C19.2961 20.1366 19.2924 20.133 19.2902 20.1308C19.2891 20.1297 19.2882 20.1288 19.2876 20.1282C19.2874 20.1279 19.2871 20.1277 19.287 20.1276C19.2869 20.1275 19.2869 20.1274 19.2868 20.1274C19.2868 20.1274 19.2868 20.1274 19.2868 20.1274C19.2868 20.1273 19.2868 20.1273 19.2868 20.1273C19.2868 20.1273 19.2868 20.1273 19.2868 20.1273C19.2865 20.127 19.2882 20.1287 19.2901 20.1307C19.2923 20.1329 19.2959 20.1364 19.3005 20.1408C19.3094 20.1493 19.3242 20.1632 19.3433 20.1794C19.3822 20.2123 19.4438 20.2589 19.5274 20.3008L20.3577 18.6406ZM20.4208 18.6755L23.4529 20.4945L22.498 22.0862L19.4659 20.2672L20.4208 18.6755ZM23.4533 20.4947C24.0167 20.833 24.199 21.5637 23.8611 22.127L22.2693 21.1723C22.0803 21.4874 22.1822 21.8966 22.4977 22.086L23.4533 20.4947ZM23.8605 22.1279C23.523 22.6892 22.7933 22.8743 22.2282 22.5351L23.1835 20.9436C22.867 20.7537 22.4584 20.8577 22.2698 21.1714L23.8605 22.1279ZM22.2284 22.5352L18.506 20.3022L19.4608 18.7104L23.1833 20.9435L22.2284 22.5352ZM18.5063 20.3024C18.6105 20.3648 18.7391 20.3849 18.8603 20.3544L18.4078 18.5542C18.7679 18.4637 19.1451 18.5212 19.4605 18.7103L18.5063 20.3024ZM18.8586 20.3548C18.9791 20.3248 19.0839 20.2465 19.1467 20.1415L17.5537 19.1886C17.7435 18.8714 18.0496 18.6435 18.4096 18.5538L18.8586 20.3548ZM19.1455 20.1435C19.2092 20.0375 19.2278 19.9093 19.1987 19.7916L17.3968 20.2371C17.3086 19.8806 17.3639 19.5041 17.5549 19.1866L19.1455 20.1435ZM19.1981 19.7893C19.1679 19.6684 19.0898 19.5648 18.9863 19.5026L18.0306 21.0938C17.7152 20.9044 17.4873 20.5991 17.3974 20.2394L19.1981 19.7893ZM18.9858 19.5023L19.7102 19.9367L18.7555 21.5286L18.0311 21.0941L18.9858 19.5023ZM19.7103 19.9368L22.7083 21.7355L21.7533 23.3272L18.7553 21.5285L19.7103 19.9368ZM22.7086 21.7357C23.272 22.074 23.4543 22.8046 23.1164 23.368L21.5246 22.4133C21.3356 22.7284 21.4375 23.1376 21.753 23.327L22.7086 21.7357ZM23.1158 23.3689C22.7778 23.9311 22.0481 24.1143 21.4843 23.7765L22.4381 22.1842C22.1228 21.9953 21.7142 22.0978 21.5251 22.4124L23.1158 23.3689ZM21.4837 23.7762L18.451 21.9567L19.4059 20.365L22.4386 22.1845L21.4837 23.7762ZM18.4501 21.9561C18.673 22.0902 18.9588 22.0168 19.0907 21.7971L17.4995 20.8414C17.8938 20.1849 18.7478 19.9691 19.4068 20.3655L18.4501 21.9561ZM19.0907 21.7971C19.154 21.6918 19.1728 21.5639 19.1436 21.446L17.3417 21.8915C17.2535 21.5348 17.309 21.1586 17.4995 20.8414L19.0907 21.7971ZM19.143 21.4436C19.1126 21.322 19.0341 21.2187 18.9318 21.1572L17.9753 22.748C17.6608 22.5589 17.4324 22.2543 17.3423 21.8938L19.143 21.4436ZM18.931 21.1567L19.6745 21.6028L18.7196 23.1945L17.9761 22.7485L18.931 21.1567ZM19.6746 21.6028L21.9637 22.9763L21.0088 24.5679L18.7196 23.1945L19.6746 21.6028ZM21.964 22.9764C22.5274 23.3148 22.7097 24.0454 22.3719 24.6088L20.78 23.654C20.591 23.9691 20.693 24.3783 21.0084 24.5677L21.964 22.9764ZM22.3713 24.6097C22.0343 25.1701 21.3045 25.3571 20.7382 25.0164L21.6951 23.4258C21.3774 23.2347 20.9687 23.3403 20.7806 23.6531L22.3713 24.6097ZM20.7391 25.017L18.45 23.6435L19.405 22.0518L21.6941 23.4253L20.7391 25.017ZM18.4503 23.6437C18.5549 23.7064 18.6835 23.726 18.8031 23.6961L18.3529 21.8953C18.7126 21.8054 19.0889 21.8624 19.4046 22.0516L18.4503 23.6437ZM18.8031 23.6961C18.9225 23.6662 19.0268 23.5889 19.09 23.4836L17.4983 22.5286C17.6884 22.2118 17.9947 21.9848 18.3529 21.8953L18.8031 23.6961ZM19.0903 23.483C19.1527 23.3789 19.172 23.2516 19.1426 23.1325L17.3408 23.5786C17.2522 23.221 17.3087 22.8451 17.498 22.5291L19.0903 23.483ZM19.142 23.1305C19.1116 23.0088 19.0331 22.9055 18.9308 22.844L17.9743 24.4348C17.6598 24.2457 17.4314 23.9411 17.3413 23.5806L19.142 23.1305ZM18.93 22.8435L23.5707 25.6275L22.6158 27.2192L17.9751 24.4353L18.93 22.8435ZM23.5707 25.6275C24.1347 25.9659 24.7678 26.0735 25.3522 25.9543L25.7233 27.773C24.6618 27.9896 23.5579 27.7844 22.6158 27.2192L23.5707 25.6275ZM25.3521 25.9543C25.926 25.8371 26.3702 25.5191 26.6359 25.0761L28.2278 26.0309C27.6794 26.9451 26.7782 27.5576 25.7234 27.773L25.3521 25.9543ZM26.6361 25.0759C27.0907 24.3186 27.03 23.5022 26.4634 22.8158L27.8949 21.6341C28.96 22.9245 29.0886 24.5968 28.2276 26.0312L26.6361 25.0759ZM27.2711 23.1485L27.2708 23.1485L27.0869 21.3015L27.0872 21.3014L27.2711 23.1485Z" fill="#4CAF4F" mask="url(#path-4-inside-2_211_2338)"/>
    </svg>
    