<svg width="46" height="40" viewBox="0 0 46 40" fill="none" xmlns="http://www.w3.org/2000/svg">
<path d="M45.6658 27.4136C45.6658 34.3333 40.0562 39.9429 33.1365 39.9429L14.3426 39.9429C12.4205 39.9429 10.8623 38.3847 10.8623 36.4625L10.8623 12.7962C10.8623 8.95187 13.9787 5.83547 17.823 5.83547L42.1854 5.83547C44.1076 5.83547 45.6658 7.39367 45.6658 9.31581L45.6658 27.4136Z" fill="#E8F5E9"/>
<path d="M20.1282 17.4213C19.9605 17.4213 19.8049 17.3752 19.6667 17.3011V17.3031C19.6667 17.5668 19.5642 17.8144 19.3782 17.9999C19.1923 18.1858 18.9448 18.2883 18.6814 18.2883C18.5113 18.2883 18.3537 18.2411 18.214 18.165C18.1999 18.4063 18.1035 18.6317 17.9315 18.8039C17.7455 18.9899 17.498 19.0924 17.2345 19.0924C16.7108 19.0924 16.2856 18.6808 16.2549 18.1649C16.0929 18.2524 15.9097 18.2983 15.7208 18.2862C15.2057 18.2524 14.8023 17.8074 14.8023 17.2727V12.8411L14.2977 13.7153C14.1055 14.0497 13.7457 14.2573 13.3583 14.2573C13.1696 14.2573 12.9831 14.2078 12.818 14.1132C12.6123 13.9939 12.4652 13.8026 12.404 13.5736C12.3425 13.3445 12.3744 13.1049 12.4932 12.8996C12.4934 12.8996 14.1443 10.0407 14.245 9.86508C14.257 9.83868 14.2911 9.7621 14.3201 9.69683C14.3479 9.63451 14.3716 9.57055 14.3944 9.50627C14.8923 8.10071 16.1251 7.2276 17.6118 7.2276C19.5425 7.2276 21.1132 8.93082 21.1132 11.0244L21.1134 16.4359C21.1134 16.6992 21.011 16.9467 20.8252 17.1329C20.6393 17.3188 20.3918 17.4213 20.1281 17.4213L20.1282 17.4213ZM17.6118 7.75115C16.3343 7.75115 15.3161 8.47274 14.8879 9.68136C14.8605 9.7581 14.832 9.83485 14.7987 9.90963C14.7021 10.1263 14.7021 10.1263 14.6749 10.1574L14.6713 10.1543C14.5365 10.4087 14.136 11.1022 12.9466 13.1616C12.8977 13.2461 12.8847 13.3441 12.9097 13.4379C12.9349 13.5317 12.9954 13.6108 13.0792 13.6592C13.3393 13.8086 13.6955 13.7121 13.8438 13.4538L14.8374 11.7335C14.8968 11.6311 15.0168 11.5807 15.1319 11.6119C15.2464 11.6425 15.3259 11.7463 15.3259 11.8647V17.2729C15.3259 17.528 15.5185 17.7483 15.7551 17.7639C15.8916 17.7711 16.0188 17.7253 16.1144 17.6299C16.2013 17.543 16.2492 17.4272 16.2492 17.3034V13.7664C16.2492 13.6217 16.3665 13.5045 16.5111 13.5045C16.6558 13.5045 16.773 13.6216 16.773 13.7664L16.7729 18.1073C16.7729 18.3618 16.98 18.569 17.2345 18.569C17.3581 18.569 17.4742 18.5211 17.5613 18.4342C17.6482 18.3471 17.6961 18.231 17.6961 18.1073V13.7664C17.6961 13.6217 17.8132 13.5045 17.958 13.5045C18.1027 13.5045 18.2199 13.6216 18.2199 13.7664L18.2198 17.2627V17.3033C18.2198 17.5577 18.4269 17.7648 18.6816 17.7648C18.8051 17.7648 18.9208 17.7168 19.0084 17.6295C19.0953 17.5428 19.1432 17.427 19.1432 17.3032V13.7662C19.1432 13.6215 19.2603 13.5043 19.4051 13.5043C19.5497 13.5043 19.667 13.6214 19.667 13.7662L19.6667 16.436C19.6667 16.6907 19.8738 16.8978 20.1281 16.8978C20.2519 16.8978 20.3677 16.8497 20.4546 16.763C20.5419 16.6758 20.5896 16.5596 20.5896 16.436L20.5898 11.0245C20.5898 9.21978 19.2539 7.7512 17.6118 7.7512L17.6118 7.75115Z" fill="#103E13"/>
<path d="M9.83847 21.1825L13.6388 18.9026C14.097 18.6274 14.6866 18.7444 14.9804 19.169C15.0877 19.3236 15.1425 19.5038 15.151 19.6873C15.2927 19.6134 15.4468 19.5732 15.6038 19.5732C15.6841 19.5732 15.7648 19.5832 15.8445 19.6031C16.0998 19.6668 16.315 19.8264 16.4503 20.0521C16.5858 20.278 16.6253 20.5429 16.5615 20.7979C16.5026 21.0339 16.3591 21.2325 16.1595 21.3688C16.2991 21.4511 16.4195 21.5634 16.5051 21.7064C16.6405 21.9324 16.6801 22.1971 16.6164 22.4525C16.5526 22.7075 16.3931 22.9226 16.1671 23.0583L16.1658 23.0591C16.3029 23.1412 16.4211 23.2524 16.5057 23.3933C16.6414 23.6193 16.6809 23.8841 16.6171 24.1394C16.5531 24.3946 16.3936 24.6098 16.1679 24.7452L11.5276 27.529C10.6616 28.0484 9.66041 28.2277 8.70892 28.0333C7.74892 27.8372 6.95386 27.2854 6.47044 26.4795C5.7054 25.2044 5.82005 23.698 6.76907 22.5482C6.81253 22.4958 6.85533 22.4423 6.8942 22.3869C6.93536 22.3283 6.98341 22.2594 6.99981 22.2358C7.09804 22.0604 8.70092 19.1724 8.70075 19.1728C8.86262 18.8807 9.166 18.7154 9.47889 18.7156C9.62485 18.7156 9.77293 18.7515 9.90954 18.8272C10.0745 18.9194 10.2131 19.0537 10.31 19.2156C10.5093 19.5477 10.5163 19.9632 10.3287 20.2995L9.83847 21.1825ZM9.86126 19.4848C9.81042 19.4 9.74056 19.3324 9.65512 19.2846C9.4785 19.1868 9.25613 19.2505 9.15889 19.4264C8.01194 21.4927 7.62096 22.1969 7.47008 22.4475L7.47352 22.4483C7.4609 22.4903 7.4609 22.4903 7.32282 22.6876C7.27591 22.7543 7.22491 22.8184 7.17293 22.8816C6.35688 23.8703 6.26213 25.1145 6.91923 26.2101C7.32626 26.8887 7.99897 27.354 8.8135 27.5203C9.6369 27.6877 10.5048 27.5319 11.258 27.0799L15.8987 24.296C16.0046 24.2326 16.0794 24.1317 16.1093 24.0122C16.1391 23.8928 16.1206 23.7686 16.0569 23.6627C15.9261 23.4446 15.6419 23.3729 15.4238 23.5043L13.1344 24.8777C13.0105 24.9522 12.8494 24.9122 12.7751 24.788C12.7007 24.664 12.7409 24.5032 12.8648 24.4287L15.1543 23.0553L15.8979 22.6092C16.0038 22.5456 16.0788 22.4447 16.1086 22.3255C16.1385 22.206 16.1199 22.0816 16.0563 21.9759C15.9253 21.7576 15.6411 21.6866 15.4231 21.8175L12.3901 23.637C12.2658 23.7116 12.1052 23.6712 12.0308 23.5473C11.9563 23.4233 11.9967 23.2624 12.1205 23.188L15.8429 20.9549C15.9489 20.8913 16.0237 20.7906 16.0535 20.671C16.0834 20.5516 16.0648 20.4275 16.0014 20.3215C15.9379 20.2158 15.837 20.141 15.7175 20.1111C15.5973 20.0813 15.4736 20.0998 15.368 20.1631L14.6789 20.5766C14.6788 20.5766 14.6788 20.5767 14.6786 20.5767H14.6784L11.6456 22.3962C11.5213 22.471 11.3605 22.4307 11.2863 22.3065C11.2118 22.1825 11.2521 22.0217 11.376 21.9472L14.409 20.1277C14.5149 20.0641 14.5899 19.9632 14.6197 19.844C14.6525 19.7131 14.6276 19.5793 14.5499 19.4671C14.4151 19.2722 14.1268 19.2203 13.9082 19.3517L9.27083 22.1337C9.16932 22.1944 9.03927 22.1796 8.95416 22.0974C8.86889 22.0151 8.8497 21.8857 8.90709 21.7822L9.87138 20.0449C9.96814 19.8712 9.96436 19.6567 9.86121 19.4849L9.86126 19.4848Z" fill="#103E13"/>
<path d="M27.9983 26.4794C27.515 27.2854 26.7201 27.8371 25.76 28.0332C24.8083 28.2272 23.8075 28.0483 22.9412 27.5289L18.3005 24.745C18.0747 24.6096 17.915 24.3944 17.851 24.1389C17.7876 23.8839 17.8273 23.619 17.9626 23.3934C18.047 23.2523 18.1654 23.1411 18.3027 23.059L18.3014 23.0582C18.0755 22.9227 17.9158 22.7075 17.8522 22.4524C17.7882 22.1972 17.8279 21.9322 17.9634 21.7062C18.0506 21.5611 18.1702 21.4476 18.3066 21.3671C18.1085 21.2308 17.9658 21.0329 17.9071 20.798C17.8432 20.5427 17.8829 20.2778 18.0183 20.0522C18.1536 19.8263 18.3689 19.6668 18.6241 19.603C18.7038 19.583 18.7847 19.5731 18.8647 19.5731C19.0218 19.5733 19.176 19.6132 19.3176 19.6873C19.3263 19.5038 19.3809 19.3235 19.4882 19.1689C19.7822 18.7447 20.3713 18.6272 20.8302 18.9026L24.6304 21.1821L24.1405 20.2998C23.9526 19.9629 23.9595 19.5474 24.1587 19.2151C24.2558 19.0534 24.3945 18.9191 24.5603 18.8261C24.6966 18.7507 24.8442 18.7149 24.9898 18.7149C25.3026 18.7151 25.6063 18.8801 25.768 19.1722C26.3314 20.1875 27.3948 22.1022 27.4695 22.2359C27.4854 22.259 27.5335 22.3279 27.5747 22.3864C27.6138 22.442 27.6562 22.4952 27.6999 22.548C28.6488 23.6982 28.7633 25.2045 27.9983 26.4794L27.9983 26.4794ZM27.2959 22.8817C27.2438 22.8186 27.1926 22.7541 27.146 22.6877C27.0043 22.4867 27.0007 22.4814 26.9901 22.4288C26.8244 22.1547 26.4204 21.4273 25.3097 19.4262C25.2122 19.2506 24.9909 19.1865 24.8146 19.2839C24.7278 19.3324 24.6581 19.4001 24.6073 19.4849C24.5043 19.6566 24.5004 19.8711 24.5976 20.0453L25.5616 21.7821C25.6191 21.8858 25.5999 22.015 25.5148 22.0973C25.4299 22.1798 25.3 22.1943 25.198 22.1336L20.5606 19.3516C20.342 19.2206 20.0539 19.2719 19.9188 19.467C19.841 19.5792 19.8163 19.713 19.8487 19.8437C19.8786 19.9631 19.9535 20.0638 20.0596 20.1274C20.06 20.1276 20.0601 20.1279 20.0605 20.1281L23.0925 21.9471C23.2165 22.0216 23.2567 22.1823 23.1822 22.3064C23.1078 22.4302 22.9472 22.4707 22.8229 22.3961L19.1005 20.163C18.9948 20.0997 18.8705 20.0811 18.7512 20.1111C18.6314 20.1409 18.5308 20.2157 18.4673 20.3218C18.4037 20.4276 18.3853 20.5517 18.4148 20.6711C18.4447 20.7905 18.5196 20.8913 18.6255 20.955L19.3499 21.3894L22.3478 23.1881C22.4718 23.2625 22.512 23.4232 22.4375 23.5474C22.3631 23.6712 22.2025 23.7115 22.0782 23.6371L19.0455 21.8176C18.8274 21.6864 18.5434 21.7576 18.4122 21.976C18.3486 22.0819 18.3302 22.2061 18.3597 22.3255C18.3896 22.4449 18.4645 22.5455 18.5706 22.6093L19.3141 23.0554L21.6033 24.4288C21.7273 24.5033 21.7675 24.664 21.693 24.7881C21.6186 24.912 21.458 24.9526 21.3337 24.8778L19.0445 23.5044C18.9389 23.4411 18.8151 23.4224 18.6951 23.4524C18.5757 23.4823 18.4747 23.557 18.4112 23.6628C18.3477 23.7688 18.3292 23.8931 18.3587 24.0123C18.3886 24.1317 18.4635 24.2324 18.5696 24.2962L23.2103 27.0801C23.9634 27.5319 24.8319 27.6883 25.6548 27.5204C26.4692 27.3541 27.1419 26.8888 27.5489 26.2102C28.2067 25.1144 28.1121 23.8701 27.2962 22.8817L27.2959 22.8817Z" fill="#103E13"/>
</svg>
