<svg width="124" height="23" viewBox="0 0 124 23" fill="none" xmlns="http://www.w3.org/2000/svg">
<g clip-path="url(#clip0_413_197)">
<path opacity="0.1" fill-rule="evenodd" clip-rule="evenodd" d="M0.85144 11.7743C0.85144 5.62346 5.8377 0.637207 11.9886 0.637207C18.1394 0.637207 23.1257 5.62346 23.1257 11.7743C23.1257 17.9252 18.1394 22.9114 11.9886 22.9114C5.8377 22.9114 0.85144 17.9252 0.85144 11.7743Z" fill="white"/>
<path fill-rule="evenodd" clip-rule="evenodd" d="M11.9892 5.83453C10.376 5.83453 10.1736 5.84159 9.53998 5.87042C8.90763 5.89938 8.476 5.99949 8.09833 6.14638C7.70766 6.29809 7.37626 6.50103 7.04611 6.83132C6.7157 7.16147 6.51276 7.49287 6.36055 7.88341C6.21329 8.26121 6.11305 8.69296 6.08459 9.32506C6.05625 9.95865 6.04883 10.1612 6.04883 11.7744C6.04883 13.3876 6.05601 13.5894 6.08471 14.223C6.1138 14.8553 6.21391 15.2869 6.36067 15.6646C6.51251 16.0553 6.71545 16.3867 7.04573 16.7168C7.37577 17.0472 7.70716 17.2507 8.09758 17.4024C8.47551 17.5493 8.90726 17.6494 9.53948 17.6784C10.1731 17.7072 10.3754 17.7142 11.9884 17.7142C13.6017 17.7142 13.8036 17.7072 14.4371 17.6784C15.0695 17.6494 15.5016 17.5493 15.8795 17.4024C16.2701 17.2507 16.601 17.0472 16.931 16.7168C17.2614 16.3867 17.4644 16.0553 17.6166 15.6647C17.7626 15.2869 17.8628 14.8552 17.8925 14.2231C17.921 13.5895 17.9284 13.3876 17.9284 11.7744C17.9284 10.1612 17.921 9.95877 17.8925 9.32519C17.8628 8.69284 17.7626 8.26121 17.6166 7.88354C17.4644 7.49287 17.2614 7.16147 16.931 6.83132C16.6006 6.50091 16.2702 6.29797 15.8792 6.14638C15.5005 5.99949 15.0686 5.89938 14.4363 5.87042C13.8027 5.84159 13.601 5.83453 11.9873 5.83453H11.9892ZM11.4563 6.90493C11.6144 6.90468 11.7909 6.90493 11.9892 6.90493C13.5751 6.90493 13.7631 6.91062 14.3893 6.93908C14.9685 6.96556 15.2828 7.06233 15.4922 7.14364C15.7694 7.2513 15.967 7.37999 16.1748 7.58789C16.3827 7.79578 16.5114 7.99378 16.6193 8.27097C16.7006 8.4801 16.7975 8.79442 16.8238 9.37356C16.8523 9.99972 16.8585 10.1878 16.8585 11.773C16.8585 13.3582 16.8523 13.5463 16.8238 14.1725C16.7973 14.7516 16.7006 15.0659 16.6193 15.2751C16.5116 15.5522 16.3827 15.7496 16.1748 15.9574C15.9669 16.1653 15.7695 16.294 15.4922 16.4016C15.283 16.4833 14.9685 16.5798 14.3893 16.6063C13.7632 16.6348 13.5751 16.641 11.9892 16.641C10.4031 16.641 10.2151 16.6348 9.58896 16.6063C9.00982 16.5796 8.6955 16.4828 8.486 16.4015C8.20881 16.2939 8.01081 16.1652 7.80292 15.9573C7.59502 15.7494 7.46632 15.5519 7.35842 15.2746C7.27712 15.0654 7.18022 14.7511 7.15386 14.172C7.1254 13.5458 7.11971 13.3577 7.11971 11.7715C7.11971 10.1853 7.1254 9.99823 7.15386 9.37207C7.18035 8.79294 7.27712 8.47862 7.35842 8.26924C7.46608 7.99205 7.59502 7.79405 7.80292 7.58616C8.01081 7.37826 8.20881 7.24956 8.486 7.14166C8.69538 7.05998 9.00982 6.96346 9.58896 6.93685C10.1369 6.91211 10.3493 6.90468 11.4563 6.90344V6.90493ZM15.1598 7.89119C14.7663 7.89119 14.447 8.21009 14.447 8.60373C14.447 8.99724 14.7663 9.31651 15.1598 9.31651C15.5533 9.31651 15.8726 8.99724 15.8726 8.60373C15.8726 8.21021 15.5533 7.89119 15.1598 7.89119ZM11.9892 8.72401C10.3046 8.72401 8.93882 10.0898 8.93882 11.7744C8.93882 13.4589 10.3046 14.8241 11.9892 14.8241C13.6738 14.8241 15.0391 13.4589 15.0391 11.7744C15.0391 10.0898 13.6738 8.72401 11.9892 8.72401ZM11.9892 9.79442C13.0826 9.79442 13.9691 10.6808 13.9691 11.7744C13.9691 12.8678 13.0826 13.7543 11.9892 13.7543C10.8956 13.7543 10.0092 12.8678 10.0092 11.7744C10.0092 10.6808 10.8956 9.79442 11.9892 9.79442Z" fill="white"/>
<path opacity="0.1" fill-rule="evenodd" clip-rule="evenodd" d="M34.2628 11.7743C34.2628 5.62346 39.2491 0.637207 45.3999 0.637207C51.5508 0.637207 56.537 5.62346 56.537 11.7743C56.537 17.9252 51.5508 22.9114 45.3999 22.9114C39.2491 22.9114 34.2628 17.9252 34.2628 11.7743Z" fill="white"/>
<path fill-rule="evenodd" clip-rule="evenodd" d="M51.3397 11.7661C51.3397 12.1678 51.2988 12.5689 51.2184 12.9599C51.1401 13.3417 51.0241 13.7164 50.8721 14.0747C50.7236 14.4266 50.5395 14.7658 50.3242 15.082C50.1122 15.3963 49.868 15.6911 49.5997 15.9599C49.3308 16.2275 49.035 16.471 48.7209 16.6839C48.4036 16.8977 48.064 17.0816 47.7118 17.2308C47.3531 17.3819 46.9774 17.4978 46.596 17.576C46.2045 17.6565 45.8019 17.6976 45.3996 17.6976C44.997 17.6976 44.5945 17.6565 44.2035 17.576C43.8215 17.4978 43.4459 17.3819 43.0874 17.2308C42.7353 17.0816 42.3953 16.8977 42.078 16.6839C41.7639 16.4711 41.4681 16.2275 41.1998 15.9599C40.9312 15.6911 40.687 15.3963 40.4747 15.082C40.2606 14.7658 40.0761 14.4266 39.9271 14.0747C39.7751 13.7164 39.6588 13.3417 39.5802 12.9599C39.5007 12.5689 39.4601 12.1678 39.4601 11.7661C39.4601 11.3641 39.5007 10.9621 39.5802 10.5719C39.6588 10.1902 39.7751 9.81486 39.9271 9.45718C40.0762 9.105 40.2606 8.76557 40.4747 8.44928C40.687 8.13476 40.9312 7.84048 41.1998 7.57142C41.4681 7.30379 41.7639 7.06082 42.0781 6.84823C42.3954 6.63361 42.7353 6.44972 43.0874 6.30026C43.4459 6.14875 43.8215 6.03263 44.2035 5.95502C44.5945 5.87509 44.9971 5.83453 45.3996 5.83453C45.8019 5.83453 46.2045 5.87509 46.596 5.95502C46.9774 6.03265 47.3531 6.14878 47.7119 6.30026C48.064 6.4497 48.4036 6.63361 48.7209 6.84823C49.035 7.06082 49.3309 7.30379 49.5997 7.57142C49.868 7.84048 50.1123 8.13476 50.3243 8.44928C50.5395 8.76557 50.7236 9.10503 50.8721 9.45718C51.0241 9.81486 51.1401 10.1902 51.2184 10.5719C51.2988 10.9621 51.3397 11.3641 51.3397 11.7661ZM43.2353 7.18448C41.8207 7.8515 40.765 9.15307 40.4358 10.7217C40.5695 10.7229 42.6833 10.7495 45.1188 10.1033C44.2409 8.54571 43.3029 7.27458 43.2353 7.18448ZM45.5391 10.8833C42.9272 11.6641 40.421 11.6079 40.3311 11.6045C40.3296 11.6589 40.327 11.7116 40.327 11.7661C40.327 13.0674 40.8186 14.2537 41.6267 15.1507C41.6249 15.148 43.0131 12.6888 45.7505 11.8049C45.8166 11.7829 45.884 11.7632 45.9507 11.7441C45.8233 11.4562 45.6844 11.1677 45.5391 10.8833ZM48.7496 7.96445C47.8565 7.1781 46.6839 6.70111 45.3996 6.70111C44.9874 6.70111 44.5875 6.75093 44.2043 6.84303C44.2803 6.94499 45.2331 8.20717 46.1006 9.79777C48.0146 9.08125 48.7371 7.98298 48.7496 7.96445ZM46.2964 12.5834C46.2851 12.5871 46.2738 12.5904 46.2628 12.5944C43.2699 13.6363 42.2925 15.7359 42.2819 15.7589C43.1431 16.4276 44.2232 16.8311 45.3996 16.8311C46.1021 16.8311 46.7712 16.6882 47.38 16.4296C47.3049 15.9871 47.0102 14.4359 46.2964 12.5834ZM48.2342 15.9668C49.3732 15.1993 50.1821 13.9806 50.4078 12.5689C50.3033 12.5353 48.8842 12.0867 47.2469 12.3488C47.9122 14.1746 48.1826 15.6616 48.2342 15.9668ZM46.4911 10.5525C46.6088 10.7941 46.7228 11.04 46.8281 11.287C46.8655 11.3757 46.9021 11.4626 46.9377 11.5494C48.6803 11.3305 50.3971 11.6989 50.4705 11.7139C50.4589 10.5132 50.0287 9.41112 49.317 8.54834C49.3074 8.56192 48.4938 9.73578 46.4911 10.5525Z" fill="white"/>
<path opacity="0.1" fill-rule="evenodd" clip-rule="evenodd" d="M67.6741 11.7743C67.6741 5.62346 72.6603 0.637207 78.8112 0.637207C84.962 0.637207 89.9483 5.62346 89.9483 11.7743C89.9483 17.9252 84.962 22.9114 78.8112 22.9114C72.6603 22.9114 67.6741 17.9252 67.6741 11.7743Z" fill="white"/>
<path fill-rule="evenodd" clip-rule="evenodd" d="M78.4777 9.68957L78.501 10.0749L78.1115 10.0278C76.6937 9.84687 75.4551 9.23342 74.4034 8.20315L73.8893 7.69195L73.7568 8.06945C73.4764 8.91097 73.6556 9.79968 74.2398 10.3974C74.5514 10.7277 74.4813 10.7749 73.9438 10.5783C73.7568 10.5154 73.5932 10.4682 73.5777 10.4918C73.5231 10.5468 73.7101 11.2625 73.8581 11.5456C74.0606 11.9389 74.4735 12.3242 74.9254 12.5523L75.3071 12.7332L74.8552 12.7411C74.419 12.7411 74.4034 12.7489 74.4502 12.9141C74.606 13.4253 75.2214 13.968 75.9069 14.2039L76.3899 14.3691L75.9692 14.6207C75.346 14.9825 74.6137 15.187 73.8815 15.2027C73.5309 15.2106 73.2427 15.242 73.2427 15.2656C73.2427 15.3443 74.1931 15.7847 74.7462 15.9577C76.4055 16.4689 78.3764 16.2487 79.8565 15.3757C80.9082 14.7544 81.9599 13.5197 82.4507 12.3242C82.7155 11.6872 82.9804 10.5232 82.9804 9.96484C82.9804 9.60306 83.0038 9.55588 83.44 9.12332C83.6971 8.87165 83.9386 8.59638 83.9853 8.51774C84.0632 8.36831 84.0554 8.36831 83.6581 8.50201C82.996 8.73795 82.9025 8.70649 83.2297 8.35258C83.4712 8.10091 83.7594 7.64476 83.7594 7.51106C83.7594 7.48747 83.6426 7.52679 83.5101 7.59757C83.3699 7.67622 83.0583 7.79419 82.8246 7.86497L82.4039 7.99867L82.0222 7.73913C81.8119 7.59757 81.5158 7.44028 81.36 7.39309C80.9627 7.28298 80.3551 7.29871 79.9968 7.42455C79.023 7.77846 78.4076 8.69076 78.4777 9.68957Z" fill="white"/>
<path opacity="0.1" fill-rule="evenodd" clip-rule="evenodd" d="M101.085 11.7743C101.085 5.62346 106.072 0.637207 112.223 0.637207C118.373 0.637207 123.36 5.62346 123.36 11.7743C123.36 17.9252 118.373 22.9114 112.223 22.9114C106.072 22.9114 101.085 17.9252 101.085 11.7743Z" fill="white"/>
<path fill-rule="evenodd" clip-rule="evenodd" d="M116.864 7.94565C117.375 8.08591 117.778 8.4992 117.914 9.02404C118.162 9.97525 118.162 11.96 118.162 11.96C118.162 11.96 118.162 13.9446 117.914 14.8959C117.778 15.4207 117.375 15.834 116.864 15.9743C115.937 16.2292 112.223 16.2292 112.223 16.2292C112.223 16.2292 108.508 16.2292 107.581 15.9743C107.07 15.834 106.668 15.4207 106.531 14.8959C106.283 13.9446 106.283 11.96 106.283 11.96C106.283 11.96 106.283 9.97525 106.531 9.02404C106.668 8.4992 107.07 8.08591 107.581 7.94565C108.508 7.69073 112.223 7.69073 112.223 7.69073C112.223 7.69073 115.937 7.69073 116.864 7.94565ZM111.109 10.2894V14.0017L114.079 12.1456L111.109 10.2894Z" fill="white"/>
</g>
<defs>
<clipPath id="clip0_413_197">
<rect width="122.508" height="22.2742" fill="white" transform="translate(0.85144 0.637207)"/>
</clipPath>
</defs>
</svg>
