<svg width="14" height="13" viewBox="0 0 14 13" fill="none" xmlns="http://www.w3.org/2000/svg">
<g clip-path="url(#clip0_413_231)">
<path fill-rule="evenodd" clip-rule="evenodd" d="M12.4608 0.766873C12.6026 0.908682 12.6506 1.11919 12.5844 1.30848L8.93002 11.7495C8.8593 11.9516 8.67243 12.09 8.45855 12.0987C8.24468 12.1074 8.04715 11.9847 7.96021 11.7891L5.95355 7.2741L1.43857 5.26744C1.24297 5.18051 1.12025 4.98298 1.12898 4.7691C1.1377 4.55523 1.2761 4.36835 1.47813 4.29764L11.9192 0.643276C12.1085 0.577025 12.319 0.625064 12.4608 0.766873ZM6.97174 6.99421L8.37953 10.1617L10.8432 3.12279L6.97174 6.99421ZM10.1049 2.38449L3.06592 4.84813L6.23345 6.25592L10.1049 2.38449Z" fill="white"/>
</g>
<defs>
<clipPath id="clip0_413_231">
<rect width="12.5293" height="12.5293" fill="white" transform="translate(0.606445 0.0919189)"/>
</clipPath>
</defs>
</svg>
