<svg width="347" height="35" viewBox="0 0 347 35" fill="none" xmlns="http://www.w3.org/2000/svg">
    <rect x="0.14209" y="0.919434" width="33.4113" height="33.4113" rx="5.56856" fill="#E8F5E9"/>
    <g clip-path="url(#clip0_211_2510)">
    <path fill-rule="evenodd" clip-rule="evenodd" d="M7.34876 1.05477C11.193 1.05477 14.3095 4.17118 14.3095 8.01547V1.05477H21.2701C25.1144 1.05477 28.2308 4.17118 28.2308 8.01547C28.2308 11.8597 25.1144 14.9762 21.2701 14.9762C25.1144 14.9762 28.2308 18.0926 28.2308 21.9369C28.2308 23.8457 27.4625 25.5751 26.2182 26.8326L26.1921 26.8588L26.169 26.8818C24.9112 28.1279 23.1806 28.8976 21.2701 28.8976C19.3727 28.8976 17.6526 28.1383 16.397 26.9071C16.3807 26.8911 16.3644 26.875 16.3482 26.8588C16.3329 26.8436 16.3178 26.8283 16.3026 26.8129C15.0698 25.557 14.3095 23.8357 14.3095 21.9369C14.3095 25.7811 11.193 28.8976 7.34876 28.8976C3.50447 28.8976 0.388062 25.7811 0.388062 21.9369V14.9762H7.34876C3.50447 14.9762 0.388062 11.8597 0.388062 8.01547C0.388062 4.17118 3.50447 1.05477 7.34876 1.05477ZM12.9173 8.01547C12.9173 11.0909 10.4242 13.584 7.34876 13.584V2.44691C10.4242 2.44691 12.9173 4.94004 12.9173 8.01547ZM26.8387 21.9369C26.8387 18.8614 24.3456 16.3683 21.2701 16.3683C18.1947 16.3683 15.7016 18.8614 15.7016 21.9369H26.8387ZM1.7802 16.3683V21.9369C1.7802 25.0123 4.27333 27.5054 7.34876 27.5054C10.4242 27.5054 12.9173 25.0123 12.9173 21.9369V16.3683H1.7802ZM15.7016 13.584V2.44691H21.2701C24.3456 2.44691 26.8387 4.94004 26.8387 8.01547C26.8387 11.0909 24.3456 13.584 21.2701 13.584H15.7016Z" fill="#5417D7"/>
    </g>
    <rect x="62.0923" y="0.919418" width="33.4113" height="33.4113" rx="5.56856" fill="#F5F7FA"/>
    <g clip-path="url(#clip1_211_2510)">
    <path fill-rule="evenodd" clip-rule="evenodd" d="M69.1212 10.6375L62.1704 17.5184C63.5607 18.8948 65.1489 20.0547 66.8805 20.9622C67.3591 22.219 68.1093 23.3976 69.1311 24.4092C72.9754 28.2148 79.2082 28.2148 83.0525 24.4092C84.0743 23.3976 84.8245 22.219 85.3032 20.9621C87.0347 20.0547 88.6229 18.8948 90.0132 17.5184L83.068 10.6431C83.0629 10.638 83.0577 10.6328 83.0525 10.6277C79.2082 6.82205 72.9754 6.82205 69.1311 10.6277C69.1278 10.631 69.1245 10.6342 69.1212 10.6375ZM82.3874 22.2036C80.3618 22.8803 78.2355 23.2269 76.0918 23.2269C73.9481 23.2269 71.8218 22.8803 69.7963 22.2036C70.0157 22.4918 70.258 22.7685 70.5232 23.031C73.5987 26.0756 78.5849 26.0756 81.6604 23.031C81.9256 22.7685 82.1679 22.4918 82.3874 22.2036ZM70.666 11.868C71.1883 12.2096 71.7436 12.5019 72.3247 12.7402C73.519 13.2299 74.7991 13.482 76.0918 13.482C77.3845 13.482 78.6646 13.2299 79.8589 12.7402C80.44 12.5019 80.9953 12.2096 81.5177 11.868C78.4806 9.00726 73.703 9.00727 70.666 11.868Z" fill="#3B4158"/>
    </g>
    <rect x="124.042" y="0.919418" width="33.4113" height="33.4113" rx="5.56856" fill="#F5F7FA"/>
    <g clip-path="url(#clip2_211_2510)">
    <path d="M162.323 14.5042C162.327 14.4752 162.327 14.4458 162.323 14.4168C162.327 14.3932 162.327 14.3691 162.323 14.3453L162.04 12.304C161.999 12.0598 161.889 11.8315 161.724 11.6448L161.675 11.5892L161.586 11.5018L156.676 7.35559L156.814 7.49063C156.701 7.35846 156.56 7.25274 156.4 7.18126C156.24 7.10978 156.066 7.07436 155.89 7.0776H154.4C154.157 7.07289 153.92 7.14845 153.727 7.29206C153.524 7.14932 153.28 7.07414 153.03 7.0776H151.54C151.344 7.07449 151.151 7.12206 150.98 7.21551C150.81 7.30896 150.667 7.44497 150.567 7.60977C150.413 7.84515 150.356 8.12874 150.405 8.40406L150.592 9.69081C150.468 9.6222 150.328 9.5866 150.187 9.58756H142.968C142.709 9.58915 142.456 9.66358 142.239 9.80201C142.029 9.93086 141.86 10.1154 141.752 10.3342L141.193 9.86555C140.973 9.66597 140.683 9.55779 140.383 9.56373H129.057C128.797 9.56837 128.543 9.63956 128.319 9.77024C128.014 9.94545 127.79 10.2303 127.696 10.5645L124.098 22.3597C124.031 22.5541 124.024 22.7637 124.079 22.9618C124.134 23.1598 124.248 23.3374 124.406 23.4718C124.447 23.506 124.491 23.5379 124.536 23.567C124.536 23.567 124.463 23.5194 124.422 23.4797L129.332 27.6338C129.54 27.8213 129.811 27.9261 130.094 27.9277H141.509C141.77 27.9211 142.024 27.8471 142.247 27.7132C142.372 27.6459 142.485 27.5571 142.579 27.4511L142.619 27.3955L142.684 27.3161L142.733 27.2287L143.267 27.6815C143.472 27.8615 143.738 27.9605 144.013 27.9595H155.453C155.713 27.951 155.967 27.8771 156.19 27.745C156.313 27.6735 156.425 27.5853 156.522 27.4829L156.563 27.4273L156.628 27.3479C156.662 27.2976 156.692 27.2445 156.717 27.189C156.743 27.1408 156.765 27.0903 156.782 27.0381L160.063 16.2675V16.1722C160.067 16.1353 160.067 16.098 160.063 16.061V15.9896C160.067 15.9659 160.067 15.9417 160.063 15.918C160.066 15.8678 160.066 15.8174 160.063 15.7671H161.116C161.208 15.7754 161.3 15.7754 161.392 15.7671H161.464C161.524 15.7498 161.581 15.7258 161.635 15.6956H161.716L161.861 15.5844L161.926 15.5368L162.04 15.3938V15.3462L162.121 15.2111C162.116 15.1849 162.116 15.158 162.121 15.1317C162.116 15.1188 162.116 15.1049 162.121 15.092C162.138 15.0454 162.152 14.9976 162.161 14.949C162.157 14.9333 162.157 14.917 162.161 14.9013C162.157 14.8777 162.157 14.8535 162.161 14.8299C162.161 14.8299 162.323 14.5201 162.323 14.5042Z" fill="black"/>
    <path d="M140.715 10.4693C140.758 10.5074 140.788 10.5576 140.801 10.6129C140.815 10.6683 140.81 10.7263 140.788 10.7791L137.199 22.5663C137.154 22.695 137.062 22.8026 136.94 22.8682C136.841 22.9331 136.726 22.9714 136.608 22.9794H125.2C125.103 22.9748 125.01 22.9352 124.941 22.8682C124.9 22.8306 124.87 22.7819 124.857 22.7282C124.844 22.6744 124.848 22.6181 124.868 22.5663L128.465 10.7791C128.507 10.6487 128.596 10.5383 128.716 10.4693C128.817 10.4091 128.931 10.3736 129.049 10.366H140.456C140.553 10.3669 140.645 10.4039 140.715 10.4693ZM134.76 20.1914L136.907 13.154H130.896L128.757 20.1914H134.76ZM151.604 10.5884C151.643 10.6328 151.692 10.6679 151.747 10.6913C151.801 10.7147 151.861 10.7257 151.92 10.7235H153.403C153.46 10.724 153.515 10.7104 153.565 10.684C153.614 10.6576 153.656 10.6192 153.687 10.5725C153.713 10.5361 153.732 10.4948 153.741 10.4511C153.751 10.4074 153.752 10.3623 153.743 10.3184L153.452 8.22145C153.424 8.1244 153.374 8.03478 153.306 7.95933C153.267 7.91499 153.218 7.87982 153.164 7.85644C153.109 7.83307 153.049 7.82208 152.99 7.8243H151.507C151.451 7.82376 151.395 7.83734 151.345 7.86374C151.296 7.89015 151.254 7.92851 151.224 7.97522C151.167 8.08642 151.143 8.1579 151.167 8.22145L151.467 10.3184C151.482 10.4205 151.53 10.5151 151.604 10.5884ZM156.312 8.20556C156.284 8.10851 156.234 8.01889 156.166 7.94344C156.129 7.89926 156.081 7.86411 156.028 7.84069C155.975 7.81727 155.916 7.80623 155.858 7.80842H154.367C154.312 7.80686 154.257 7.82007 154.208 7.84664C154.16 7.87321 154.12 7.91215 154.092 7.95933C154.038 8.0298 154.014 8.11831 154.027 8.20556L154.327 10.3025C154.345 10.4035 154.393 10.4972 154.464 10.5725C154.504 10.616 154.553 10.6506 154.607 10.6739C154.662 10.6972 154.721 10.7087 154.78 10.7076H156.271C156.327 10.7083 156.381 10.6947 156.429 10.6682C156.478 10.6417 156.518 10.6033 156.547 10.5567C156.575 10.5211 156.594 10.4798 156.604 10.4359C156.614 10.3919 156.614 10.3463 156.603 10.3025L156.312 8.20556ZM150.3 11.3827L150.154 10.3501H142.968C142.855 10.3562 142.746 10.3919 142.652 10.4534C142.592 10.4853 142.54 10.5295 142.5 10.583C142.459 10.6365 142.431 10.6979 142.417 10.7632L141.817 12.733C141.793 12.7822 141.785 12.8375 141.794 12.8913C141.803 12.9452 141.828 12.9952 141.866 13.0348C141.934 13.0978 142.023 13.1345 142.117 13.1381H150.851L148.704 20.1755H139.994C139.882 20.178 139.773 20.211 139.678 20.2708C139.564 20.3422 139.48 20.4525 139.443 20.5806L138.836 22.5504C138.816 22.601 138.811 22.6559 138.821 22.7092C138.831 22.7625 138.856 22.8119 138.892 22.8522C138.959 22.9194 139.048 22.9592 139.144 22.9634H150.584C150.702 22.9535 150.816 22.9153 150.916 22.8522C151.035 22.7864 151.125 22.6786 151.167 22.5504L154.456 11.7799H150.754C150.695 11.781 150.637 11.7703 150.582 11.7484C150.528 11.7266 150.479 11.694 150.438 11.6528C150.371 11.5807 150.323 11.4933 150.3 11.3986V11.3827Z" fill="white"/>
    </g>
    <rect x="185.993" y="0.919418" width="33.4113" height="33.4113" rx="5.56856" fill="#F5F7FA"/>
    <g clip-path="url(#clip3_211_2510)">
    <path d="M216.617 10.2547C216.617 10.2783 216.617 10.3077 216.611 10.3253C216.581 10.5548 216.581 10.7843 216.599 11.0197C216.611 11.0785 216.623 11.1373 216.672 11.1844C216.752 11.2727 216.875 11.255 216.924 11.1491C216.948 11.0962 216.948 11.0432 216.936 10.9902C216.875 10.7666 216.863 10.5313 216.856 10.3018C216.856 10.29 216.856 10.2724 216.856 10.2547C216.924 10.2488 216.985 10.2429 217.04 10.2429C217.083 10.2371 217.12 10.2312 217.151 10.2135C217.243 10.1665 217.243 10.0664 217.145 10.0194C217.108 10.0017 217.059 9.99581 217.016 9.99581C216.863 10.0017 216.709 10.0017 216.556 10.0017C216.501 10.0017 216.446 10.0076 216.39 10.0135C216.36 10.0194 216.323 10.0194 216.299 10.037C216.256 10.0547 216.231 10.0841 216.231 10.1253C216.237 10.1665 216.256 10.19 216.299 10.2076C216.323 10.2253 216.354 10.2312 216.384 10.2312C216.458 10.2371 216.538 10.2488 216.617 10.2547ZM218.303 10.5254C218.303 10.5313 218.309 10.5372 218.309 10.5372C218.334 10.696 218.358 10.849 218.377 11.002C218.383 11.055 218.389 11.102 218.426 11.1432C218.506 11.2433 218.628 11.2315 218.683 11.1256C218.708 11.0726 218.714 11.0197 218.702 10.9608C218.665 10.7843 218.647 10.6078 218.61 10.4371C218.585 10.3312 218.555 10.2312 218.524 10.137C218.506 10.0782 218.463 10.037 218.389 10.0311C218.316 10.0194 218.26 10.0547 218.23 10.1076C218.193 10.1547 218.162 10.2018 218.138 10.2547C218.095 10.3489 218.058 10.443 218.009 10.5313C218.003 10.5548 217.997 10.5725 217.984 10.5901C217.978 10.5783 217.972 10.5725 217.972 10.5725C217.893 10.4254 217.819 10.2783 217.739 10.137C217.727 10.1253 217.721 10.1135 217.715 10.1017C217.678 10.0488 217.635 10.0194 217.568 10.0194C217.506 10.0252 217.457 10.0605 217.427 10.1135C217.414 10.137 217.414 10.1547 217.408 10.1782C217.384 10.3665 217.353 10.5548 217.328 10.7431C217.316 10.849 217.31 10.9549 217.31 11.0609C217.304 11.0844 217.31 11.1138 217.322 11.1373C217.335 11.1844 217.371 11.2138 217.42 11.2197C217.482 11.2256 217.525 11.208 217.543 11.1609C217.561 11.1256 217.568 11.0962 217.574 11.0667C217.598 10.9608 217.617 10.8608 217.635 10.7608C217.647 10.7019 217.653 10.6548 217.672 10.5901C217.684 10.6137 217.696 10.6313 217.709 10.649C217.764 10.7196 217.819 10.7902 217.886 10.849C217.954 10.8961 218.009 10.8902 218.064 10.8373C218.076 10.8255 218.083 10.8196 218.095 10.8078C218.15 10.7255 218.217 10.6431 218.273 10.5607C218.285 10.5489 218.291 10.5372 218.303 10.5254Z" fill="#3A3B7B"/>
    <path d="M204.177 10.3703C204.134 10.4822 204.126 10.5627 204.146 10.6297C204.168 10.7207 204.224 10.7506 204.301 10.7274C205.021 10.5565 206.6 11.0416 207.185 11.1768C207.322 11.2052 207.435 11.0344 207.34 10.8812C207.203 10.7329 205.625 10.0979 205.023 10.0632C204.786 10.0504 204.364 9.99234 204.177 10.3703Z" fill="#3A3B7B"/>
    <path d="M210.348 8.31467C210.425 8.35718 210.468 8.39774 210.489 8.44305C210.521 8.50249 210.504 8.54361 210.451 8.5646C209.975 8.78757 209.342 9.74751 209.086 10.0786C209.024 10.1547 208.881 10.1105 208.859 9.98524C208.864 9.84363 209.425 8.80188 209.739 8.51814C209.862 8.40736 210.065 8.19 210.348 8.31467Z" fill="#3A3B7B"/>
    <path d="M206.558 7.84216C206.65 7.77546 206.746 7.75209 206.795 7.79544C207.513 8.38494 207.894 9.31846 208.129 10.1731C208.138 10.193 208.139 10.2216 208.132 10.2514C208.129 10.2768 208.109 10.3038 208.079 10.3246C208.046 10.3476 208.017 10.3546 208.004 10.3348C207.689 9.92385 205.892 8.32508 206.558 7.84216Z" fill="#3A3B7B"/>
    <path d="M191.349 18.0626C191.521 17.9396 191.708 17.8372 191.906 17.7577C192.114 17.7009 192.334 17.7103 192.535 17.7846C192.737 17.8589 192.907 17.9941 193.021 18.1696C193.123 18.3447 193.163 18.5468 193.135 18.7455C193.106 18.9442 193.012 19.1288 192.865 19.2714C192.751 19.387 192.622 19.4877 192.48 19.571C191.851 19.9614 191.215 20.3305 190.58 20.7209C190.45 20.8186 190.312 20.9063 190.168 20.983C189.948 21.0882 189.697 21.1164 189.458 21.0627C189.218 21.009 189.006 20.8767 188.858 20.6888C188.747 20.5558 188.654 20.4103 188.579 20.2556C187.978 19.0414 187.353 17.8326 186.774 16.597C186.506 16.0622 186.289 15.4471 186.077 14.8534C185.986 14.6809 185.968 14.4809 186.027 14.2959C186.087 14.111 186.219 13.9556 186.397 13.8629C186.574 13.7703 186.782 13.7476 186.976 13.7997C187.17 13.8518 187.336 13.9747 187.437 14.142C187.749 14.5396 188.025 14.9619 188.262 15.4043C188.864 16.4741 189.438 17.5438 190.017 18.5814C190.051 18.6388 190.088 18.6941 190.129 18.7472C190.565 18.5712 190.975 18.341 191.349 18.0626Z" fill="#3A3B7B"/>
    <path d="M197.572 17.6894C196.196 19.2352 193.888 18.8447 192.729 16.855C191.904 15.4429 191.76 13.1109 193.554 11.64C193.937 11.3321 194.395 11.1223 194.886 11.0303C195.487 10.9475 196.101 11.0493 196.638 11.3212C197.175 11.5931 197.61 12.021 197.879 12.544C198.859 14.2555 198.72 16.4378 197.572 17.6894ZM197.015 14.0844C196.868 13.6638 196.575 13.3047 196.184 13.0681C195.963 12.9168 195.695 12.8433 195.424 12.8599C195.153 12.8764 194.896 12.9821 194.696 13.159C193.9 13.8383 193.732 15.4483 194.312 16.4057C194.386 16.5618 194.494 16.7006 194.63 16.8122C194.765 16.9239 194.925 17.0058 195.097 17.0521C195.269 17.0985 195.449 17.1082 195.626 17.0807C195.802 17.053 195.97 16.9888 196.118 16.8924C196.549 16.571 196.866 16.1283 197.024 15.6261C197.182 15.1238 197.173 14.5868 196.998 14.0897L197.015 14.0844Z" fill="#3A3B7B"/>
    <path d="M203.189 14.7584C203.049 14.7874 202.903 14.7892 202.761 14.7634C202.62 14.7377 202.485 14.6851 202.365 14.6086C202.26 14.5509 202.169 14.4716 202.1 14.3763C202.03 14.281 201.984 14.1722 201.964 14.0576C201.943 13.943 201.95 13.8256 201.983 13.7137C202.015 13.6018 202.074 13.4982 202.153 13.4105C202.291 13.2341 202.488 13.1079 202.71 13.0521C203.291 12.8903 203.889 12.7916 204.494 12.758C204.626 12.7431 204.761 12.7539 204.889 12.7897C205.017 12.8255 205.137 12.8854 205.241 12.9662C205.345 13.0469 205.431 13.1467 205.494 13.2597C205.557 13.3728 205.596 13.4968 205.608 13.6245C205.782 14.2516 205.801 14.9092 205.664 15.5446C205.162 17.5985 203.435 18.3045 201.495 17.6467C200.951 17.4708 200.474 17.143 200.124 16.7053C199.659 16.1782 199.328 15.5535 199.16 14.8814C199.024 14.2829 199.039 13.6619 199.204 13.0702C199.369 12.4784 199.679 11.933 200.108 11.4796C200.515 10.9868 201.044 10.599 201.646 10.351C202.026 10.1497 202.472 10.0925 202.894 10.1906C202.99 10.216 203.077 10.2656 203.146 10.3342C203.215 10.4028 203.264 10.4879 203.287 10.5807C203.311 10.6734 203.308 10.7705 203.279 10.8618C203.25 10.9531 203.196 11.0353 203.123 11.0999C202.983 11.2208 202.832 11.3283 202.671 11.4208C202.176 11.7236 201.745 12.1138 201.401 12.5707C201.175 12.8664 201.02 13.206 200.946 13.5654C200.871 13.9249 200.88 14.2955 200.971 14.6514C201.098 15.1366 201.378 15.5721 201.774 15.8976C203 16.9674 204.594 15.9351 204.315 14.4749C203.908 14.5712 203.552 14.6728 203.189 14.7584Z" fill="#3A3B7B"/>
    <path d="M210.679 17.775C208.868 18.8448 206.806 17.775 206.355 15.5286C206.026 13.924 206.65 11.6775 208.835 10.8217C209.3 10.6436 209.804 10.581 210.3 10.6399C210.897 10.7447 211.445 11.0267 211.866 11.446C212.287 11.8654 212.56 12.4009 212.647 12.9773C213.014 14.8867 212.179 16.9246 210.679 17.775ZM211.309 14.1753C211.309 13.731 211.145 13.3011 210.847 12.9612C210.687 12.751 210.457 12.6004 210.195 12.535C209.932 12.4697 209.655 12.4936 209.409 12.6029C208.428 13.0093 207.737 14.4856 207.988 15.5714C208.007 15.7418 208.065 15.9061 208.157 16.0529C208.249 16.1996 208.374 16.3253 208.522 16.4211C208.67 16.5168 208.838 16.5804 209.014 16.6073C209.191 16.6342 209.371 16.6239 209.543 16.5769C210.061 16.4031 210.51 16.0782 210.827 15.6477C211.143 15.2171 211.312 14.7024 211.309 14.1753Z" fill="#3A3B7B"/>
    <path d="M214.478 18.2243C214.451 18.4201 214.344 18.5974 214.18 18.7173C214.017 18.8371 213.81 18.8897 213.606 18.8635C213.402 18.8372 213.217 18.7343 213.093 18.5773C212.968 18.4203 212.913 18.2221 212.94 18.0264C212.968 17.8306 213.075 17.6533 213.238 17.5334C213.402 17.4136 213.608 17.361 213.812 17.3872C214.016 17.4135 214.201 17.5164 214.326 17.6734C214.451 17.8304 214.506 18.0285 214.478 18.2243ZM213.993 11.0089C214.099 10.8535 214.255 10.7352 214.437 10.6716C214.619 10.608 214.817 10.6025 215.002 10.6559C215.191 10.7011 215.357 10.8071 215.474 10.9561C215.59 11.1051 215.65 11.288 215.643 11.4742C215.618 11.773 215.572 12.0697 215.504 12.3621C215.32 13.3516 215.142 14.3411 214.946 15.3199C214.857 15.7104 214.74 16.0848 214.612 16.4806C214.567 16.6043 214.493 16.7161 214.395 16.8069C214.334 16.8751 214.256 16.9275 214.168 16.9591C214.08 16.9908 213.985 17.0006 213.893 16.9878C213.8 16.975 213.712 16.94 213.637 16.8859C213.562 16.8318 213.503 16.7605 213.464 16.6785C213.398 16.5314 213.362 16.3734 213.358 16.2132C213.358 15.5499 213.358 14.8814 213.403 14.2127C213.479 13.2586 213.628 12.3111 213.849 11.3779C213.875 11.2529 213.924 11.1334 213.993 11.0249V11.0089Z" fill="#3A3B7B"/>
    <path fill-rule="evenodd" clip-rule="evenodd" d="M188.995 22.5224C188.929 22.6634 188.911 22.8206 188.943 22.9718C188.964 23.1712 189.011 23.3673 189.083 23.5557C189.172 23.7864 189.272 24.0145 189.395 24.2956C189.423 24.3603 189.453 24.4278 189.484 24.4989C189.65 24.8798 189.859 25.3665 190.137 26.071C190.215 26.2711 190.285 26.4729 190.356 26.676C190.384 26.7581 190.412 26.8404 190.442 26.923C190.546 27.2164 190.726 27.48 190.965 27.6889C191.067 27.8038 191.201 27.8874 191.352 27.9293C191.505 27.9719 191.669 27.9692 191.821 27.9215C191.973 27.8738 192.107 27.7832 192.204 27.6616C192.3 27.5424 192.357 27.3987 192.368 27.2486C192.43 26.9561 192.409 26.6529 192.307 26.371C192.144 25.9029 191.959 25.4342 191.745 24.9757L191.744 24.9736C191.393 24.2563 191.036 23.5439 190.662 22.8313L190.659 22.8263C190.55 22.6406 190.407 22.4746 190.238 22.3358C190.129 22.2119 189.978 22.1283 189.811 22.0995C189.641 22.0701 189.465 22.0997 189.315 22.1831C189.174 22.2608 189.061 22.3795 188.995 22.5224Z" fill="#3A3B7B"/>
    <path fill-rule="evenodd" clip-rule="evenodd" d="M194.361 20.7561C193.81 20.6191 193.235 20.5992 192.675 20.6976C192.242 20.7386 191.815 20.8345 191.519 21.0247C191.369 21.1214 191.247 21.2457 191.179 21.4036C191.111 21.5623 191.102 21.7439 191.158 21.9462C191.26 22.3168 191.392 22.6772 191.524 23.0363L191.545 23.0945L191.546 23.0958C191.943 24.1392 192.344 25.1791 192.748 26.2155C192.795 26.3788 192.862 26.5363 192.947 26.6849L192.948 26.6877C193.061 26.8723 193.204 27.0374 193.374 27.1761C193.459 27.2523 193.563 27.3051 193.677 27.3287C193.792 27.3524 193.911 27.3455 194.022 27.3087C194.133 27.2718 194.231 27.2064 194.306 27.1196C194.38 27.0343 194.428 26.9314 194.446 26.822C194.519 26.5246 194.495 26.2128 194.378 25.9286C194.342 25.8329 194.313 25.7352 194.283 25.6323C194.273 25.5979 194.263 25.563 194.252 25.5275C195.178 25.1802 196.163 24.7132 196.509 23.6268C196.645 23.2514 196.656 22.8449 196.542 22.463C196.427 22.0807 196.192 21.7419 195.868 21.4931C195.428 21.1449 194.913 20.8933 194.361 20.7561ZM192.834 22.0886C192.852 22.0835 192.871 22.0788 192.889 22.0745C193.492 21.9835 194.108 22.1047 194.625 22.4156C194.853 22.5677 194.946 22.7366 194.962 22.8992C194.979 23.0666 194.916 23.248 194.788 23.4224C194.547 23.7518 194.108 24.0155 193.711 24.0646C193.422 23.4251 193.128 22.7598 192.834 22.0886Z" fill="#3A3B7B"/>
    <path d="M198.034 19.5856C198.69 19.2948 199.503 19.2446 200.139 19.4491C200.299 19.4938 200.438 19.5907 200.532 19.723C200.625 19.8546 200.668 20.0131 200.654 20.1715C200.653 20.2744 200.627 20.3756 200.577 20.4669C200.527 20.5598 200.454 20.6398 200.364 20.7C200.275 20.7601 200.172 20.7988 200.064 20.8126C199.956 20.8264 199.845 20.8151 199.743 20.7794L199.735 20.7767L199.728 20.773C199.675 20.7466 199.619 20.7268 199.562 20.7138L199.558 20.713C199.111 20.599 198.689 20.788 198.534 21.0201C198.461 21.1308 198.452 21.2426 198.513 21.3443C198.579 21.4531 198.739 21.5753 199.065 21.6624C199.154 21.686 199.246 21.7087 199.339 21.7318C199.597 21.7958 199.864 21.8622 200.123 21.9543L200.124 21.9547C201.317 22.3903 201.761 23.2926 201.609 24.1412C201.458 24.9804 200.728 25.7442 199.63 25.9244C199.23 26.0094 198.814 25.9928 198.423 25.8763C198.031 25.7595 197.678 25.5463 197.399 25.2578L197.391 25.2503C197.303 25.1416 197.244 25.0139 197.217 24.8785C197.193 24.7562 197.206 24.6299 197.254 24.5143C197.302 24.3994 197.383 24.3 197.487 24.2276C197.598 24.1454 197.731 24.0962 197.87 24.0859C198.009 24.0757 198.148 24.1046 198.269 24.1691C198.391 24.2255 198.504 24.2975 198.606 24.3831L198.608 24.3847C198.788 24.5425 199.005 24.5836 199.214 24.5455C199.425 24.5069 199.624 24.3867 199.752 24.2273C199.879 24.0689 199.93 23.8807 199.87 23.698C199.809 23.514 199.626 23.3078 199.223 23.1354C199.118 23.0926 199.008 23.058 198.895 23.0243C198.864 23.0152 198.833 23.0062 198.802 22.997C198.718 22.9725 198.631 22.9473 198.547 22.9196C198.488 22.9005 198.431 22.8824 198.373 22.8645C198.217 22.8155 198.064 22.7678 197.917 22.7038C197.597 22.5993 197.321 22.3987 197.129 22.1315C196.937 21.8633 196.84 21.5426 196.853 21.2172C196.854 20.4243 197.374 19.8781 198.034 19.5856Z" fill="#3A3B7B"/>
    <path d="M206.352 19.5011C206.225 19.4415 206.084 19.4132 205.943 19.4188C205.801 19.4243 205.663 19.4636 205.542 19.5331C205.421 19.6021 205.319 19.6987 205.247 19.8144C205.18 19.9118 205.134 20.0207 205.111 20.1351C205.089 20.2494 205.089 20.3668 205.113 20.4808C205.137 20.6273 205.163 20.7698 205.189 20.9104C205.232 21.1429 205.274 21.3702 205.301 21.602L205.302 21.6079C205.365 21.9714 205.398 22.339 205.401 22.7074L205.401 22.7126C205.423 23.1105 205.281 23.5005 205.008 23.8001L205.003 23.8054C204.914 23.915 204.795 23.9985 204.66 24.0469C204.524 24.0952 204.377 24.1063 204.235 24.0789C204.093 24.0516 203.962 23.9869 203.856 23.8921C203.75 23.7972 203.674 23.6757 203.636 23.5417C203.554 23.2592 203.507 22.9686 203.495 22.6759L203.634 20.5534C203.636 20.5257 203.639 20.4973 203.641 20.4686C203.646 20.4041 203.652 20.3385 203.654 20.2772C203.657 20.1871 203.654 20.0944 203.633 20.0067C203.61 19.9171 203.568 19.8318 203.492 19.7592C203.417 19.6873 203.316 19.6342 203.189 19.5981C202.96 19.5343 202.765 19.5363 202.604 19.6023C202.442 19.6682 202.331 19.7906 202.252 19.932C202.174 20.0722 202.124 20.2382 202.086 20.4044C202.058 20.5278 202.036 20.6573 202.014 20.7806C202.007 20.8231 201.999 20.8648 201.992 20.9053L201.992 20.9065C201.877 21.5825 201.843 22.2689 201.89 22.9524C201.899 23.3218 201.979 23.6864 202.127 24.0275C202.293 24.4678 202.595 24.8492 202.992 25.1215C203.39 25.3943 203.865 25.5447 204.354 25.5526C204.843 25.5605 205.323 25.4257 205.73 25.166C206.137 24.9066 206.452 24.5349 206.634 24.1001C206.889 23.5461 207.008 22.9436 206.984 22.3386C206.969 21.8969 206.944 21.4518 206.919 21.009C206.907 20.7917 206.894 20.575 206.883 20.3595C206.878 20.1435 206.804 19.9342 206.671 19.7598C206.588 19.6496 206.479 19.5607 206.352 19.5011Z" fill="#3A3B7B"/>
    <path d="M210.854 22.8291C210.842 22.8449 210.828 22.8611 210.814 22.8781C210.71 22.3052 210.614 21.7324 210.518 21.1588C210.484 20.953 210.449 20.7463 210.414 20.5403L210.411 20.5173L210.398 20.4974C210.374 20.46 210.371 20.4234 210.371 20.3452V20.3362L210.37 20.3272C210.344 20.1658 210.268 20.0155 210.152 19.8961C210.036 19.7771 209.885 19.6942 209.72 19.6583C209.554 19.6191 209.381 19.6278 209.22 19.6831C209.061 19.7383 208.921 19.8375 208.82 19.9682C208.735 20.0686 208.666 20.1798 208.615 20.2988C208.497 20.5549 208.378 20.8118 208.26 21.0693L208.258 21.0737C207.961 21.7166 207.662 22.3638 207.372 23.0161L207.371 23.0182C207.193 23.4411 207.046 23.8868 206.899 24.3311C206.87 24.4197 206.841 24.5084 206.811 24.5968C206.758 24.737 206.735 24.8859 206.743 25.0348C206.733 25.168 206.767 25.301 206.838 25.4156C206.911 25.5326 207.021 25.6247 207.151 25.6788C207.29 25.737 207.444 25.7494 207.591 25.7139C207.737 25.6786 207.866 25.5976 207.959 25.4839C208.078 25.3437 208.18 25.1908 208.264 25.0289C208.509 24.5464 208.744 24.0579 208.978 23.5716C209.069 23.3836 209.156 23.2151 209.256 23.0316C209.263 23.0542 209.27 23.0763 209.278 23.0984C209.382 23.5414 209.559 23.9656 209.802 24.3557C209.848 24.4383 209.912 24.5105 209.989 24.5674C210.068 24.6249 210.158 24.6653 210.255 24.6858C210.351 24.7063 210.451 24.7064 210.548 24.6861C210.644 24.6658 210.735 24.6254 210.813 24.5681L210.969 24.4564L212.176 23.4807L212.104 23.9172C212.006 24.5173 211.909 25.1123 211.806 25.7075C211.738 25.9713 211.738 26.2468 211.806 26.5105C211.836 26.6589 211.91 26.7955 212.021 26.903C212.133 27.0113 212.276 27.0849 212.431 27.1142C212.587 27.1436 212.748 27.1273 212.894 27.0675C213.038 27.0087 213.161 26.9102 213.246 26.7848C213.445 26.5478 213.569 26.2609 213.603 25.9583C213.654 25.5309 213.712 25.0977 213.77 24.6646C213.837 24.1654 213.903 23.6663 213.96 23.1769L213.96 23.1754C214.014 22.6396 214.04 22.1016 214.038 21.5632C214.05 21.3931 214.006 21.2236 213.912 21.0788C213.818 20.9335 213.678 20.8205 213.513 20.7558C213.341 20.6809 213.149 20.6608 212.964 20.6987C212.781 20.7363 212.615 20.8291 212.49 20.9635C212.268 21.1611 212.059 21.3725 211.865 21.5964L211.864 21.598C211.652 21.8509 211.442 22.1088 211.234 22.365C211.107 22.5207 210.98 22.6761 210.854 22.8291Z" fill="#3A3B7B"/>
    </g>
    <rect x="247.943" y="0.919418" width="33.4113" height="33.4113" rx="5.56856" fill="#F5F7FA"/>
    <g clip-path="url(#clip4_211_2510)">
    <path d="M274.698 9.05684C274.698 9.3812 274.964 9.64414 275.293 9.64414H275.887C276.216 9.64414 276.482 9.3812 276.482 9.05684C276.482 8.73248 276.216 8.46953 275.887 8.46953H275.293C274.964 8.46953 274.698 8.73248 274.698 9.05684Z" fill="#212326"/>
    <path d="M257.456 27.2634H260.344L259.503 26.4328C259.28 26.2125 258.978 26.0888 258.662 26.0888H257.456C252.859 26.0888 249.132 22.4075 249.132 17.8665C249.132 13.3254 252.859 9.64415 257.456 9.64415H266.969C271.566 9.64415 275.293 13.3254 275.293 17.8665C275.293 22.4075 271.566 26.0888 266.969 26.0888H263.41C262.937 26.0888 262.483 25.9031 262.149 25.5728L261.164 24.5997C260.606 24.0489 259.85 23.7396 259.062 23.7396H257.456C254.172 23.7396 251.51 21.1101 251.51 17.8665C251.51 14.6228 254.172 11.9934 257.456 11.9934H266.969C270.252 11.9934 272.914 14.6228 272.914 17.8665C272.914 21.1101 270.252 23.7396 266.969 23.7396H264.684C264.211 23.7396 263.757 23.5539 263.423 23.2235L262.437 22.2504C261.88 21.6997 261.124 21.3903 260.335 21.3903H257.456C255.486 21.3903 253.888 19.8126 253.888 17.8665C253.888 15.9203 255.486 14.3426 257.456 14.3426H266.969C268.939 14.3426 270.536 15.9203 270.536 17.8665C270.536 19.7889 268.978 21.3518 267.041 21.3896L267.04 21.3903H266.17C265.697 21.3903 265.243 21.2047 264.909 20.8743L263.924 19.9012C263.466 19.4493 262.875 19.1599 262.242 19.0706L262.212 19.0411H257.456C256.799 19.0411 256.267 18.5152 256.267 17.8665C256.267 17.2177 256.799 16.6918 257.456 16.6918H266.969C267.625 16.6918 268.158 17.2177 268.158 17.8665C268.158 18.5152 267.625 19.0411 266.969 19.0411H264.591L265.431 19.8717C265.654 20.0919 265.957 20.2157 266.272 20.2157H266.969C268.282 20.2157 269.347 19.1639 269.347 17.8665C269.347 16.569 268.282 15.5172 266.969 15.5172H257.456C256.142 15.5172 255.078 16.569 255.078 17.8665C255.078 19.1639 256.142 20.2157 257.456 20.2157H261.822C262.295 20.2157 262.748 20.4013 263.083 20.7317L264.068 21.7048C264.626 22.2555 265.382 22.5649 266.17 22.5649H267.266V22.5559C269.754 22.4043 271.725 20.3627 271.725 17.8665C271.725 15.2716 269.596 13.168 266.969 13.168H257.456C254.829 13.168 252.699 15.2716 252.699 17.8665C252.699 20.4614 254.829 22.5649 257.456 22.5649H260.335C260.808 22.5649 261.262 22.7506 261.597 23.081L262.582 24.0541C263.139 24.6048 263.895 24.9142 264.684 24.9142H266.969C270.909 24.9142 274.103 21.7588 274.103 17.8665C274.103 13.9741 270.909 10.8188 266.969 10.8188H257.456C253.515 10.8188 250.321 13.9741 250.321 17.8665C250.321 21.7588 253.515 24.9142 257.456 24.9142H259.062C259.535 24.9142 259.988 25.0998 260.323 25.4302L261.308 26.4033C261.866 26.954 262.622 27.2634 263.41 27.2634H266.969C272.223 27.2634 276.482 23.0563 276.482 17.8665C276.482 12.6767 272.223 8.46953 266.969 8.46953L257.456 8.46953C252.202 8.46953 247.943 12.6767 247.943 17.8665C247.943 23.0563 252.202 27.2634 257.456 27.2634Z" fill="#212326"/>
    </g>
    <rect x="309.893" y="0.919418" width="33.4113" height="33.4113" rx="5.56856" fill="#F5F7FA"/>
    <g clip-path="url(#clip5_211_2510)">
    <path d="M318.485 10.5577C317.071 10.5577 315.716 11.1193 314.716 12.1188L311.454 15.3808C310.455 16.3803 309.893 17.7359 309.893 19.1494C309.893 22.093 312.279 24.4791 315.223 24.4791C316.636 24.4791 317.992 23.9176 318.991 22.9181L321.248 20.6617C321.248 20.6617 321.248 20.6618 321.248 20.6617L327.822 14.0876C328.299 13.6102 328.947 13.342 329.622 13.342C330.752 13.342 331.71 14.0786 332.043 15.098L334.117 13.0232C333.171 11.5407 331.511 10.5577 329.622 10.5577C328.208 10.5577 326.853 11.1193 325.853 12.1188L317.023 20.9493C316.545 21.4267 315.898 21.6949 315.223 21.6949C313.817 21.6949 312.677 20.5552 312.677 19.1494C312.677 18.4743 312.946 17.8269 313.423 17.3495L316.685 14.0876C317.162 13.6102 317.81 13.342 318.485 13.342C319.615 13.342 320.573 14.0787 320.905 15.0981L322.98 13.0232C322.034 11.5408 320.374 10.5577 318.485 10.5577Z" fill="#394149"/>
    <path d="M328.16 20.9493C327.682 21.4267 327.035 21.6949 326.36 21.6949C325.23 21.6949 324.272 20.9584 323.939 19.9392L321.865 22.014C322.811 23.4962 324.471 24.4791 326.36 24.4791C327.773 24.4791 329.129 23.9176 330.129 22.9181L338.959 14.0876C339.436 13.6102 340.084 13.342 340.759 13.342C342.165 13.342 343.304 14.4817 343.304 15.8875C343.304 16.5626 343.036 17.21 342.559 17.6874L339.297 20.9493C338.82 21.4267 338.172 21.6949 337.497 21.6949C336.367 21.6949 335.409 20.9583 335.076 19.939L333.002 22.0138C333.948 23.4962 335.608 24.4791 337.497 24.4791C338.911 24.4791 340.266 23.9176 341.266 22.9181L344.528 19.6561C345.527 18.6566 346.089 17.301 346.089 15.8875C346.089 12.9439 343.703 10.5578 340.759 10.5578C339.345 10.5578 337.99 11.1193 336.99 12.1188L328.16 20.9493Z" fill="#394149"/>
    </g>
    <defs>
    <clipPath id="clip0_211_2510">
    <rect width="27.8428" height="27.8428" fill="white" transform="translate(0.388062 1.05477)"/>
    </clipPath>
    <clipPath id="clip1_211_2510">
    <rect width="27.8428" height="19.4899" fill="white" transform="translate(62.1704 7.77346)"/>
    </clipPath>
    <clipPath id="clip2_211_2510">
    <rect width="38.2838" height="20.8821" fill="white" transform="translate(124.042 7.07739)"/>
    </clipPath>
    <clipPath id="clip3_211_2510">
    <rect width="32.7153" height="20.186" fill="white" transform="translate(185.993 7.77346)"/>
    </clipPath>
    <clipPath id="clip4_211_2510">
    <rect width="28.5388" height="18.7939" fill="white" transform="translate(247.943 8.46953)"/>
    </clipPath>
    <clipPath id="clip5_211_2510">
    <rect width="36.1956" height="13.9214" fill="white" transform="translate(309.893 10.5577)"/>
    </clipPath>
    </defs>
    </svg>
    