<svg width="46" height="40" viewBox="0 0 46 40" fill="none" xmlns="http://www.w3.org/2000/svg">
<path d="M45.9186 27.4136C45.9186 34.3333 40.309 39.9429 33.3893 39.9429L14.5955 39.9429C12.6733 39.9429 11.1151 38.3847 11.1151 36.4625L11.1151 12.7962C11.1151 8.95187 14.2315 5.83547 18.0758 5.83547L42.4382 5.83547C44.3604 5.83547 45.9186 7.39367 45.9186 9.31581L45.9186 27.4136Z" fill="#E8F5E9"/>
<path d="M17.3728 7.92371C14.8869 7.92371 12.8632 9.96589 12.8632 12.4623C12.8632 14.0416 13.6742 15.436 14.8988 16.2488C13.4197 16.7434 12.1399 17.6676 11.2013 18.8768C10.6823 18.4776 10.1024 18.1566 9.47729 17.9266C10.4252 17.2228 11.0447 16.0923 11.0447 14.8217C11.0447 12.7045 9.33233 10.9712 7.22789 10.9712C5.12346 10.9712 3.41107 12.7045 3.41107 14.8217C3.41107 16.093 4.03106 17.2241 4.97981 17.9278C2.46799 18.8547 0.674072 21.2815 0.674072 24.1374V26.1436C0.674329 26.2966 0.735505 26.4431 0.843975 26.5508C0.952444 26.6587 1.09922 26.7189 1.25216 26.7184H10.0539C10.0753 26.7207 10.0966 26.722 10.1179 26.7217H24.6281C24.6494 26.722 24.671 26.7207 24.6921 26.7184H33.4945C33.8109 26.7171 34.0672 26.4603 34.068 26.1436V24.1374C34.068 21.2815 32.2772 18.8547 29.7667 17.9276C30.7154 17.2241 31.3354 16.0928 31.3354 14.8215C31.3354 12.7042 29.623 10.971 27.5186 10.971C25.4142 10.971 23.7017 12.7042 23.7017 14.8215C23.7017 16.0921 24.3215 17.2227 25.2694 17.9263C24.643 18.1569 24.0629 18.4789 23.5432 18.8791C22.605 17.6692 21.3269 16.7436 19.8479 16.2488C21.0722 15.436 21.8835 14.0416 21.8835 12.4623C21.8835 9.96589 19.8587 7.92371 17.3729 7.92371H17.3728ZM17.3728 9.07525C19.232 9.07525 20.7307 10.5841 20.7307 12.4623C20.7307 14.3259 19.2553 15.82 17.4167 15.844C17.4021 15.844 17.3877 15.8419 17.3728 15.8419C17.3579 15.8419 17.3437 15.844 17.3288 15.844C15.4902 15.8203 14.0158 14.3259 14.0158 12.4623C14.0158 10.5838 15.5133 9.07525 17.3725 9.07525H17.3728ZM7.22796 12.1227C8.70312 12.1227 9.89323 13.32 9.89323 14.8217C9.89323 16.3133 8.71852 17.5054 7.25724 17.5216C7.24747 17.5216 7.23796 17.5206 7.22794 17.5206C7.21817 17.5206 7.20866 17.5216 7.19864 17.5216C5.73735 17.5054 4.56264 16.313 4.56264 14.8217C4.56264 13.3201 5.75275 12.1227 7.22792 12.1227H7.22796ZM27.5182 12.1227C28.9934 12.1227 30.1835 13.32 30.1835 14.8217C30.1835 16.3133 29.0088 17.5054 27.5475 17.5216C27.5377 17.5216 27.5282 17.5206 27.5182 17.5206C27.5084 17.5206 27.4989 17.5216 27.4889 17.5216C26.0276 17.5054 24.8529 16.313 24.8529 14.8217C24.8529 13.3201 26.043 12.1227 27.5182 12.1227H27.5182ZM17.3287 16.9955C17.3433 16.9957 17.3577 16.9975 17.3726 16.9975C17.3873 16.9975 17.4017 16.9955 17.4166 16.9955C21.1038 17.0191 24.0548 19.9954 24.0548 23.7212L24.0545 25.5698H10.6913V23.7212C10.6913 19.9951 13.6414 17.0192 17.3282 16.9955H17.3287ZM7.18387 18.6745C7.19852 18.6747 7.21292 18.6765 7.22782 18.6765C7.24273 18.6765 7.25687 18.6745 7.27178 18.6745C8.51894 18.6845 9.65713 19.1145 10.5634 19.834C9.91491 20.9815 9.53987 22.3059 9.53987 23.7215V25.5657H1.82516V24.1374C1.82516 21.1094 4.2059 18.6981 7.18373 18.6742L7.18387 18.6745ZM27.4741 18.6745C27.489 18.6747 27.5032 18.6765 27.5181 18.6765C27.533 18.6765 27.5471 18.6745 27.562 18.6745C30.5399 18.6981 32.9206 21.1097 32.9206 24.1376V25.5657H25.202L25.2017 23.7215C25.2017 22.3067 24.8277 20.9832 24.1805 19.836C25.087 19.1156 26.226 18.6845 27.4742 18.6745H27.4741Z" fill="#103E13"/>
</svg>
