<svg width="46" height="40" viewBox="0 0 46 40" fill="none" xmlns="http://www.w3.org/2000/svg">
<path d="M45.7922 27.4136C45.7922 34.3333 40.1827 39.9429 33.263 39.9429L14.4691 39.9429C12.547 39.9429 10.9888 38.3847 10.9888 36.4625L10.9888 12.7962C10.9888 8.95187 14.1052 5.83547 17.9495 5.83547L42.3119 5.83547C44.234 5.83547 45.7922 7.39367 45.7922 9.31581L45.7922 27.4136Z" fill="#E8F5E9"/>
<path d="M19.2834 14.1959C19.0662 14.1959 18.8896 14.0196 18.8896 13.8022V13.133C18.8896 12.9158 19.0659 12.7393 19.2834 12.7393C19.5006 12.7393 19.6771 12.9155 19.6771 13.133V13.8022C19.6771 14.0196 19.5006 14.1959 19.2834 14.1959Z" fill="#103E13"/>
<path d="M17.6279 14.1959C17.4107 14.1959 17.2341 14.0196 17.2341 13.8022V13.133C17.2341 12.9158 17.4104 12.7393 17.6279 12.7393C17.8451 12.7393 18.0216 12.9155 18.0216 13.133V13.8022C18.0214 14.0196 17.8453 14.1959 17.6279 14.1959Z" fill="#103E13"/>
<path d="M15.9726 14.1959C15.7554 14.1959 15.5789 14.0196 15.5789 13.8022V13.133C15.5789 12.9158 15.7551 12.7393 15.9726 12.7393C16.1898 12.7393 16.3664 12.9155 16.3664 13.133V13.8022C16.3664 14.0196 16.1901 14.1959 15.9726 14.1959Z" fill="#103E13"/>
<path d="M19.2834 16.9323C19.0662 16.9323 18.8896 16.756 18.8896 16.5386V15.8697C18.8896 15.6525 19.0659 15.476 19.2834 15.476C19.5006 15.476 19.6771 15.6522 19.6771 15.8697V16.5386C19.6771 16.756 19.5006 16.9323 19.2834 16.9323Z" fill="#103E13"/>
<path d="M17.6279 16.9323C17.4107 16.9323 17.2341 16.756 17.2341 16.5386V15.8697C17.2341 15.6525 17.4104 15.476 17.6279 15.476C17.8451 15.476 18.0216 15.6522 18.0216 15.8697V16.5386C18.0214 16.756 17.8453 16.9323 17.6279 16.9323Z" fill="#103E13"/>
<path d="M15.9726 16.9323C15.7554 16.9323 15.5789 16.756 15.5789 16.5386V15.8697C15.5789 15.6525 15.7551 15.476 15.9726 15.476C16.1898 15.476 16.3664 15.6522 16.3664 15.8697V16.5386C16.3664 16.756 16.1901 16.9323 15.9726 16.9323Z" fill="#103E13"/>
<path d="M19.2834 19.6687C19.0662 19.6687 18.8896 19.4924 18.8896 19.2749V18.6058C18.8896 18.3886 19.0659 18.212 19.2834 18.212C19.5006 18.212 19.6771 18.3883 19.6771 18.6058V19.2749C19.6771 19.4924 19.5006 19.6687 19.2834 19.6687Z" fill="#103E13"/>
<path d="M17.6279 19.6687C17.4107 19.6687 17.2341 19.4924 17.2341 19.2749V18.6058C17.2341 18.3886 17.4104 18.212 17.6279 18.212C17.8451 18.212 18.0216 18.3883 18.0216 18.6058V19.2749C18.0214 19.4924 17.8453 19.6687 17.6279 19.6687Z" fill="#103E13"/>
<path d="M15.9726 19.6687C15.7554 19.6687 15.5789 19.4924 15.5789 19.2749V18.6058C15.5789 18.3886 15.7551 18.212 15.9726 18.212C16.1898 18.212 16.3664 18.3883 16.3664 18.6058V19.2749C16.3664 19.4924 16.1901 19.6687 15.9726 19.6687Z" fill="#103E13"/>
<path d="M19.2834 22.4045C19.0662 22.4045 18.8896 22.2282 18.8896 22.0108V21.3416C18.8896 21.1244 19.0659 20.9479 19.2834 20.9479C19.5006 20.9479 19.6771 21.1242 19.6771 21.3416V22.0108C19.6771 22.2282 19.5006 22.4045 19.2834 22.4045Z" fill="#103E13"/>
<path d="M17.6279 22.4045C17.4107 22.4045 17.2341 22.2282 17.2341 22.0108V21.3416C17.2341 21.1244 17.4104 20.9479 17.6279 20.9479C17.8451 20.9479 18.0216 21.1242 18.0216 21.3416V22.0108C18.0214 22.2282 17.8453 22.4045 17.6279 22.4045Z" fill="#103E13"/>
<path d="M15.9726 22.4045C15.7554 22.4045 15.5789 22.2282 15.5789 22.0108V21.3416C15.5789 21.1244 15.7551 20.9479 15.9726 20.9479C16.1898 20.9479 16.3664 21.1242 16.3664 21.3416V22.0108C16.3664 22.2282 16.1901 22.4045 15.9726 22.4045Z" fill="#103E13"/>
<path d="M19.2834 25.1409C19.0662 25.1409 18.8896 24.9647 18.8896 24.7472V24.0783C18.8896 23.8611 19.0659 23.6846 19.2834 23.6846C19.5006 23.6846 19.6771 23.8609 19.6771 24.0783V24.7472C19.6771 24.9644 19.5006 25.1409 19.2834 25.1409Z" fill="#103E13"/>
<path d="M17.6279 25.1409C17.4107 25.1409 17.2341 24.9647 17.2341 24.7472V24.0783C17.2341 23.8611 17.4104 23.6846 17.6279 23.6846C17.8451 23.6846 18.0216 23.8609 18.0216 24.0783V24.7472C18.0214 24.9644 17.8453 25.1409 17.6279 25.1409Z" fill="#103E13"/>
<path d="M15.9726 25.1409C15.7554 25.1409 15.5789 24.9647 15.5789 24.7472L15.5791 24.0783C15.5791 23.8611 15.7554 23.6846 15.9729 23.6846C16.1901 23.6846 16.3666 23.8609 16.3666 24.0783V24.7472C16.3664 24.9644 16.1901 25.1409 15.9726 25.1409Z" fill="#103E13"/>
<path d="M4.72445 27.8641C4.72445 28.0813 4.90073 28.2579 5.1182 28.2579H29.0962C29.3134 28.2579 29.49 28.0816 29.49 27.8641C29.49 27.6469 29.3137 27.4704 29.0962 27.4704H28.3684V16.1653C28.3684 15.9481 28.1921 15.7716 27.9746 15.7716L21.5459 15.7718V7.62147C21.5459 7.48364 21.474 7.35623 21.3564 7.28484C21.2392 7.21317 21.0926 7.20878 20.9707 7.2722L13.6617 11.0776C13.5313 11.1454 13.45 11.28 13.45 11.4269V18.5461H6.3765C6.15932 18.5461 5.98276 18.7223 5.98276 18.9398V27.4704H5.11732C4.90013 27.4702 4.72412 27.6464 4.72412 27.8639L4.72445 27.8641ZM21.546 21.7353H27.5813V27.4707L21.546 27.4704V21.7353ZM21.546 18.9991H27.5813V20.9481L21.546 20.9478V18.9991ZM21.546 16.5589H27.5813V18.2122H21.546V16.5589ZM14.2371 11.666L20.7583 8.2705V27.4701H14.2371V11.666ZM8.71669 24.3256C8.71669 23.5084 9.36414 22.8434 10.1601 22.8434C10.9561 22.8434 11.6039 23.5081 11.6039 24.3256V27.4706H8.71669V24.3256ZM6.77023 19.3334H13.4499V27.4704H12.3913V24.3254C12.3913 23.0741 11.3908 22.056 10.1601 22.056C8.93003 22.056 7.92949 23.0739 7.92949 24.3254V27.4704H6.77023V19.3334Z" fill="#103E13"/>
</svg>
