<svg width="805" height="69" viewBox="0 0 805 69" fill="none" xmlns="http://www.w3.org/2000/svg">
<g clip-path="url(#clip0_211_2045)">
<path fill-rule="evenodd" clip-rule="evenodd" d="M9.97901 20.6801C13.8233 20.6801 16.9397 23.7965 16.9397 27.6407V20.6801H23.9004C27.7446 20.6801 30.8611 23.7965 30.8611 27.6407C30.8611 31.485 27.7446 34.6014 23.9004 34.6014C27.7446 34.6014 30.8611 37.7179 30.8611 41.5621C30.8611 43.471 30.0927 45.2004 28.8484 46.4579L28.8224 46.4841L28.7993 46.5071C27.5415 47.7532 25.8108 48.5228 23.9004 48.5228C22.003 48.5228 20.2829 47.7636 19.0272 46.5324C19.0109 46.5164 18.9946 46.5003 18.9784 46.4841C18.9632 46.4689 18.948 46.4536 18.9329 46.4382C17.7001 45.1823 16.9397 43.461 16.9397 41.5621C16.9397 45.4064 13.8233 48.5228 9.97901 48.5228C6.13472 48.5228 3.01831 45.4064 3.01831 41.5621V34.6014H9.97901C6.13472 34.6014 3.01831 31.485 3.01831 27.6407C3.01831 23.7965 6.13472 20.6801 9.97901 20.6801ZM15.5476 27.6407C15.5476 30.7162 13.0544 33.2093 9.97901 33.2093V22.0722C13.0544 22.0722 15.5476 24.5653 15.5476 27.6407ZM29.469 41.5621C29.469 38.4867 26.9758 35.9936 23.9004 35.9936C20.825 35.9936 18.3318 38.4867 18.3318 41.5621H29.469ZM4.41045 35.9936V41.5621C4.41045 44.6376 6.90358 47.1307 9.97901 47.1307C13.0544 47.1307 15.5476 44.6376 15.5476 41.5621V35.9936H4.41045ZM18.3318 33.2093V22.0722H23.9004C26.9758 22.0722 29.469 24.5653 29.469 27.6407C29.469 30.7162 26.9758 33.2093 23.9004 33.2093H18.3318Z" fill="#263238"/>
</g>
<g clip-path="url(#clip1_211_2045)">
<path fill-rule="evenodd" clip-rule="evenodd" d="M138.046 27.6138L131.095 34.4947C132.485 35.8711 134.074 37.031 135.805 37.9385C136.284 39.1953 137.034 40.3739 138.056 41.3855C141.9 45.1911 148.133 45.1911 151.977 41.3855C152.999 40.3739 153.749 39.1953 154.228 37.9384C155.959 37.031 157.548 35.8711 158.938 34.4947L151.993 27.6194C151.988 27.6143 151.982 27.6091 151.977 27.604C148.133 23.7983 141.9 23.7983 138.056 27.604C138.052 27.6073 138.049 27.6105 138.046 27.6138ZM151.312 39.1799C149.287 39.8566 147.16 40.2032 145.016 40.2032C142.873 40.2032 140.747 39.8566 138.721 39.1799C138.94 39.4681 139.183 39.7448 139.448 40.0073C142.523 43.0519 147.51 43.0519 150.585 40.0073C150.85 39.7448 151.093 39.4681 151.312 39.1799ZM139.591 28.8443C140.113 29.1859 140.668 29.4782 141.249 29.7165C142.444 30.2062 143.724 30.4582 145.016 30.4582C146.309 30.4582 147.589 30.2062 148.784 29.7165C149.365 29.4782 149.92 29.1859 150.442 28.8443C147.405 25.9836 142.628 25.9836 139.591 28.8443Z" fill="#3B4158"/>
</g>
<g clip-path="url(#clip2_211_2045)">
<path d="M292.58 31.4805C292.584 31.4515 292.584 31.4222 292.58 31.3931C292.584 31.3695 292.584 31.3454 292.58 31.3217L292.297 29.2803C292.256 29.0361 292.146 28.8079 291.981 28.6211L291.932 28.5655L291.843 28.4781L286.933 24.3319L287.071 24.467C286.958 24.3348 286.817 24.2291 286.657 24.1576C286.497 24.0861 286.323 24.0507 286.147 24.0539H284.657C284.414 24.0492 284.177 24.1248 283.984 24.2684C283.781 24.1256 283.537 24.0505 283.287 24.0539H281.797C281.601 24.0508 281.408 24.0984 281.237 24.1918C281.067 24.2853 280.924 24.4213 280.824 24.5861C280.67 24.8215 280.612 25.1051 280.662 25.3804L280.849 26.6671C280.725 26.5985 280.585 26.5629 280.444 26.5639H273.225C272.966 26.5655 272.713 26.6399 272.495 26.7783C272.285 26.9072 272.117 27.0917 272.009 27.3105L271.45 26.8419C271.23 26.6423 270.94 26.5341 270.64 26.54H259.314C259.054 26.5447 258.8 26.6159 258.576 26.7466C258.271 26.9218 258.047 27.2067 257.952 27.5408L254.355 39.3361C254.288 39.5304 254.281 39.74 254.336 39.9381C254.391 40.1361 254.505 40.3137 254.663 40.4481C254.704 40.4823 254.748 40.5142 254.793 40.5434C254.793 40.5434 254.72 40.4957 254.679 40.456L259.589 44.6101C259.797 44.7976 260.068 44.9024 260.351 44.904H271.766C272.027 44.8974 272.281 44.8234 272.504 44.6895C272.629 44.6222 272.742 44.5334 272.836 44.4274L272.876 44.3718L272.941 44.2924L272.99 44.205L273.524 44.6578C273.729 44.8378 273.995 44.9368 274.27 44.9358H285.71C285.97 44.9273 286.224 44.8535 286.447 44.7213C286.57 44.6499 286.682 44.5616 286.779 44.4592L286.82 44.4036L286.885 44.3242C286.919 44.2739 286.949 44.2208 286.974 44.1653C287 44.1172 287.022 44.0666 287.038 44.0144L290.32 33.2439V33.1485C290.324 33.1116 290.324 33.0743 290.32 33.0373V32.9659C290.324 32.9422 290.324 32.9181 290.32 32.8944C290.323 32.8441 290.323 32.7937 290.32 32.7434H291.373C291.465 32.7517 291.557 32.7517 291.648 32.7434H291.721C291.781 32.7261 291.838 32.7021 291.892 32.672H291.973L292.118 32.5608L292.183 32.5131L292.297 32.3701V32.3225L292.378 32.1874C292.373 32.1612 292.373 32.1343 292.378 32.108C292.373 32.0951 292.373 32.0812 292.378 32.0683C292.395 32.0217 292.408 31.9739 292.418 31.9253C292.414 31.9097 292.414 31.8933 292.418 31.8777C292.414 31.854 292.414 31.8298 292.418 31.8062C292.418 31.8062 292.58 31.4964 292.58 31.4805Z" fill="black"/>
<path d="M270.972 27.4456C271.015 27.4837 271.045 27.5338 271.058 27.5892C271.072 27.6446 271.067 27.7026 271.045 27.7553L267.456 39.5426C267.411 39.6713 267.318 39.7789 267.197 39.8444C267.098 39.9093 266.983 39.9477 266.865 39.9556H255.457C255.36 39.951 255.267 39.9115 255.198 39.8444C255.156 39.8069 255.127 39.7582 255.114 39.7044C255.101 39.6507 255.105 39.5943 255.125 39.5426L258.722 27.7553C258.764 27.625 258.853 27.5146 258.973 27.4456C259.074 27.3853 259.188 27.3499 259.306 27.3423H270.713C270.81 27.3432 270.902 27.3801 270.972 27.4456ZM265.017 37.1677L267.164 30.1303H261.153L259.014 37.1677H265.017ZM281.861 27.5647C281.9 27.609 281.949 27.6442 282.004 27.6676C282.058 27.691 282.118 27.702 282.177 27.6997H283.66C283.716 27.7003 283.772 27.6867 283.822 27.6603C283.871 27.6339 283.913 27.5955 283.944 27.5488C283.97 27.5123 283.989 27.471 283.998 27.4274C284.008 27.3837 284.009 27.3386 284 27.2947L283.709 25.1977C283.681 25.1007 283.631 25.0111 283.563 24.9356C283.524 24.8913 283.475 24.8561 283.421 24.8327C283.366 24.8093 283.306 24.7984 283.247 24.8006H281.764C281.708 24.8 281.652 24.8136 281.602 24.84C281.553 24.8664 281.511 24.9048 281.481 24.9515C281.424 25.0627 281.4 25.1342 281.424 25.1977L281.724 27.2947C281.739 27.3968 281.787 27.4914 281.861 27.5647ZM286.569 25.1818C286.541 25.0848 286.491 24.9952 286.423 24.9197C286.386 24.8755 286.338 24.8404 286.285 24.817C286.232 24.7936 286.173 24.7825 286.115 24.7847H284.624C284.569 24.7831 284.514 24.7964 284.465 24.8229C284.417 24.8495 284.376 24.8884 284.349 24.9356C284.295 25.0061 284.271 25.0946 284.284 25.1818L284.584 27.2788C284.602 27.3798 284.65 27.4735 284.721 27.5488C284.761 27.5923 284.81 27.6269 284.864 27.6502C284.919 27.6735 284.978 27.685 285.037 27.6838H286.528C286.584 27.6846 286.638 27.671 286.686 27.6445C286.735 27.618 286.775 27.5796 286.804 27.5329C286.832 27.4974 286.851 27.4561 286.861 27.4121C286.871 27.3682 286.871 27.3226 286.86 27.2788L286.569 25.1818ZM280.557 28.359L280.411 27.3264H273.225C273.112 27.3325 273.003 27.3682 272.909 27.4297C272.849 27.4616 272.797 27.5058 272.757 27.5593C272.716 27.6128 272.688 27.6742 272.674 27.7395L272.074 29.7093C272.05 29.7585 272.042 29.8137 272.051 29.8676C272.059 29.9215 272.085 29.9715 272.123 30.0111C272.191 30.0741 272.28 30.1108 272.374 30.1144H281.108L278.961 37.1518H270.251C270.139 37.1543 270.03 37.1873 269.935 37.2471C269.821 37.3184 269.737 37.4288 269.7 37.5569L269.093 39.5267C269.073 39.5773 269.068 39.6322 269.078 39.6854C269.088 39.7387 269.112 39.7882 269.149 39.8285C269.216 39.8957 269.305 39.9355 269.401 39.9397H280.841C280.959 39.9298 281.073 39.8916 281.173 39.8285C281.292 39.7626 281.382 39.6548 281.424 39.5267L284.713 28.7561H281.011C280.952 28.7573 280.894 28.7466 280.839 28.7247C280.785 28.7029 280.736 28.6703 280.695 28.6291C280.628 28.557 280.58 28.4696 280.557 28.3749V28.359Z" fill="white"/>
</g>
<g clip-path="url(#clip3_211_2045)">
<path d="M415.785 27.2311C415.785 27.2546 415.785 27.284 415.779 27.3017C415.748 27.5312 415.748 27.7607 415.767 27.996C415.779 28.0549 415.791 28.1137 415.84 28.1608C415.92 28.249 416.042 28.2314 416.092 28.1255C416.116 28.0725 416.116 28.0196 416.104 27.9666C416.042 27.743 416.03 27.5076 416.024 27.2781C416.024 27.2664 416.024 27.2487 416.024 27.2311C416.092 27.2252 416.153 27.2193 416.208 27.2193C416.251 27.2134 416.288 27.2075 416.318 27.1899C416.41 27.1428 416.41 27.0428 416.312 26.9957C416.275 26.9781 416.226 26.9722 416.184 26.9722C416.03 26.9781 415.877 26.9781 415.724 26.9781C415.669 26.9781 415.613 26.9839 415.558 26.9898C415.528 26.9957 415.491 26.9957 415.466 27.0134C415.423 27.031 415.399 27.0604 415.399 27.1016C415.405 27.1428 415.423 27.1663 415.466 27.184C415.491 27.2017 415.521 27.2075 415.552 27.2075C415.626 27.2134 415.705 27.2252 415.785 27.2311ZM417.471 27.5017C417.471 27.5076 417.477 27.5135 417.477 27.5135C417.502 27.6724 417.526 27.8254 417.545 27.9784C417.551 28.0313 417.557 28.0784 417.594 28.1196C417.673 28.2196 417.796 28.2078 417.851 28.1019C417.876 28.049 417.882 27.996 417.87 27.9372C417.833 27.7607 417.814 27.5841 417.778 27.4135C417.753 27.3076 417.722 27.2075 417.692 27.1134C417.673 27.0545 417.63 27.0134 417.557 27.0075C417.483 26.9957 417.428 27.031 417.397 27.084C417.361 27.131 417.33 27.1781 417.305 27.2311C417.263 27.3252 417.226 27.4194 417.177 27.5076C417.171 27.5312 417.164 27.5488 417.152 27.5665C417.146 27.5547 417.14 27.5488 417.14 27.5488C417.06 27.4017 416.987 27.2546 416.907 27.1134C416.895 27.1016 416.889 27.0899 416.882 27.0781C416.846 27.0251 416.803 26.9957 416.735 26.9957C416.674 27.0016 416.625 27.0369 416.594 27.0899C416.582 27.1134 416.582 27.131 416.576 27.1546C416.551 27.3429 416.521 27.5312 416.496 27.7195C416.484 27.8254 416.478 27.9313 416.478 28.0372C416.472 28.0607 416.478 28.0902 416.49 28.1137C416.502 28.1608 416.539 28.1902 416.588 28.1961C416.649 28.202 416.692 28.1843 416.711 28.1372C416.729 28.1019 416.735 28.0725 416.741 28.0431C416.766 27.9372 416.784 27.8371 416.803 27.7371C416.815 27.6783 416.821 27.6312 416.84 27.5665C416.852 27.59 416.864 27.6077 416.876 27.6253C416.931 27.6959 416.987 27.7665 417.054 27.8254C417.122 27.8725 417.177 27.8666 417.232 27.8136C417.244 27.8018 417.25 27.796 417.263 27.7842C417.318 27.7018 417.385 27.6194 417.44 27.5371C417.453 27.5253 417.459 27.5135 417.471 27.5017Z" fill="#3A3B7B"/>
<path d="M403.345 27.3466C403.302 27.4584 403.294 27.539 403.314 27.606C403.335 27.697 403.392 27.7268 403.468 27.7037C404.189 27.5328 405.768 28.0179 406.352 28.1531C406.49 28.1815 406.602 28.0107 406.508 27.8575C406.371 27.7092 404.793 27.0742 404.19 27.0395C403.954 27.0267 403.532 26.9686 403.345 27.3466Z" fill="#3A3B7B"/>
<path d="M409.516 25.291C409.593 25.3335 409.636 25.3741 409.657 25.4194C409.689 25.4788 409.672 25.5199 409.619 25.5409C409.143 25.7639 408.509 26.7238 408.254 27.0549C408.192 27.1311 408.049 27.0868 408.027 26.9616C408.032 26.8199 408.593 25.7782 408.907 25.4945C409.03 25.3837 409.233 25.1663 409.516 25.291Z" fill="#3A3B7B"/>
<path d="M405.725 24.8185C405.818 24.7518 405.913 24.7284 405.962 24.7718C406.68 25.3613 407.061 26.2948 407.297 27.1494C407.306 27.1693 407.307 27.1979 407.3 27.2277C407.297 27.2532 407.277 27.2801 407.246 27.3009C407.213 27.3239 407.185 27.3309 407.172 27.3111C406.857 26.9002 405.059 25.3014 405.725 24.8185Z" fill="#3A3B7B"/>
<path d="M390.517 35.0389C390.689 34.9159 390.876 34.8135 391.074 34.734C391.281 34.6772 391.502 34.6866 391.703 34.7609C391.904 34.8352 392.075 34.9703 392.189 35.1458C392.291 35.3209 392.33 35.523 392.302 35.7218C392.274 35.9205 392.18 36.105 392.033 36.2477C391.919 36.3633 391.789 36.464 391.648 36.5472C391.018 36.9377 390.383 37.3067 389.748 37.6972C389.618 37.7949 389.48 37.8826 389.335 37.9593C389.116 38.0645 388.864 38.0926 388.625 38.0389C388.386 37.9852 388.174 37.853 388.026 37.6651C387.915 37.5321 387.821 37.3866 387.747 37.2318C387.145 36.0177 386.521 34.8089 385.942 33.5733C385.674 33.0385 385.457 32.4233 385.245 31.8296C385.153 31.6571 385.135 31.4572 385.195 31.2722C385.255 31.0872 385.387 30.9319 385.564 30.8392C385.741 30.7465 385.949 30.7239 386.144 30.776C386.338 30.8281 386.503 30.9509 386.605 31.1183C386.916 31.5158 387.192 31.9381 387.429 32.3806C388.031 33.4503 388.605 34.52 389.185 35.5577C389.219 35.615 389.256 35.6704 389.296 35.7235C389.733 35.5475 390.143 35.3173 390.517 35.0389Z" fill="#3A3B7B"/>
<path d="M396.74 34.6658C395.363 36.2115 393.056 35.8211 391.897 33.8314C391.072 32.4193 390.927 30.0873 392.722 28.6164C393.105 28.3084 393.563 28.0987 394.054 28.0066C394.655 27.9239 395.268 28.0257 395.806 28.2976C396.343 28.5694 396.777 28.9974 397.046 29.5203C398.027 31.2319 397.888 33.4142 396.74 34.6658ZM396.182 31.0607C396.036 30.6401 395.743 30.2811 395.352 30.0445C395.131 29.8932 394.862 29.8197 394.591 29.8362C394.32 29.8528 394.064 29.9584 393.864 30.1354C393.067 30.8147 392.9 32.4247 393.48 33.3821C393.553 33.5382 393.662 33.6769 393.798 33.7886C393.933 33.9003 394.092 33.9822 394.264 34.0285C394.436 34.0749 394.617 34.0846 394.793 34.057C394.97 34.0294 395.137 33.9652 395.285 33.8688C395.717 33.5473 396.034 33.1047 396.192 32.6024C396.35 32.1001 396.341 31.5631 396.166 31.0661L396.182 31.0607Z" fill="#3A3B7B"/>
<path d="M402.357 31.7346C402.216 31.7637 402.071 31.7654 401.929 31.7397C401.787 31.714 401.653 31.6613 401.532 31.5849C401.427 31.5271 401.337 31.4478 401.267 31.3525C401.198 31.2573 401.152 31.1484 401.131 31.0338C401.111 30.9193 401.118 30.8018 401.15 30.6899C401.183 30.578 401.241 30.4745 401.321 30.3867C401.459 30.2104 401.655 30.0841 401.878 30.0284C402.459 29.8665 403.057 29.7678 403.661 29.7342C403.794 29.7194 403.928 29.7302 404.057 29.7659C404.185 29.8017 404.305 29.8617 404.408 29.9424C404.512 30.0231 404.598 30.1229 404.661 30.236C404.724 30.349 404.763 30.473 404.776 30.6007C404.95 31.2278 404.969 31.8854 404.832 32.5209C404.33 34.5748 402.602 35.2808 400.663 34.6229C400.119 34.447 399.641 34.1193 399.292 33.6815C398.826 33.1544 398.496 32.5297 398.328 31.8576C398.192 31.2592 398.207 30.6382 398.372 30.0464C398.536 29.4546 398.846 28.9093 399.275 28.4559C399.683 27.9631 400.211 27.5752 400.814 27.3273C401.194 27.126 401.639 27.0687 402.062 27.1668C402.158 27.1923 402.245 27.2419 402.314 27.3105C402.383 27.3791 402.432 27.4642 402.455 27.5569C402.478 27.6497 402.475 27.7467 402.446 27.838C402.417 27.9293 402.364 28.0115 402.29 28.0761C402.151 28.197 402 28.3045 401.839 28.397C401.343 28.6999 400.912 29.0901 400.568 29.547C400.343 29.8427 400.187 30.1822 400.113 30.5417C400.039 30.9011 400.048 31.2718 400.139 31.6277C400.266 32.1129 400.546 32.5484 400.942 32.8739C402.168 33.9436 403.762 32.9113 403.483 31.4511C403.076 31.5474 402.719 31.649 402.357 31.7346Z" fill="#3A3B7B"/>
<path d="M409.847 34.7514C408.036 35.8211 405.974 34.7514 405.523 32.5049C405.194 30.9003 405.818 28.6539 408.003 27.7981C408.467 27.6199 408.972 27.5574 409.468 27.6162C410.065 27.7211 410.612 28.003 411.033 28.4224C411.454 28.8417 411.727 29.3773 411.814 29.9536C412.182 31.8631 411.346 33.9009 409.847 34.7514ZM410.477 31.1517C410.476 30.7074 410.313 30.2774 410.014 29.9375C409.855 29.7273 409.625 29.5767 409.362 29.5113C409.1 29.446 408.822 29.47 408.577 29.5792C407.596 29.9857 406.905 31.4619 407.155 32.5477C407.175 32.7181 407.232 32.8825 407.325 33.0292C407.417 33.176 407.541 33.3016 407.689 33.3974C407.837 33.4932 408.006 33.5568 408.182 33.5837C408.358 33.6106 408.539 33.6002 408.71 33.5533C409.229 33.3794 409.678 33.0546 409.994 32.624C410.311 32.1935 410.48 31.6787 410.477 31.1517Z" fill="#3A3B7B"/>
<path d="M413.646 35.2006C413.619 35.3964 413.511 35.5737 413.348 35.6936C413.184 35.8134 412.978 35.866 412.774 35.8398C412.57 35.8136 412.385 35.7106 412.26 35.5536C412.135 35.3967 412.08 35.1985 412.108 35.0027C412.135 34.807 412.242 34.6297 412.406 34.5098C412.57 34.3899 412.776 34.3373 412.98 34.3636C413.184 34.3898 413.369 34.4927 413.494 34.6497C413.618 34.8067 413.673 35.0049 413.646 35.2006ZM413.161 27.9852C413.267 27.8299 413.423 27.7116 413.604 27.6479C413.786 27.5843 413.984 27.5788 414.17 27.6322C414.358 27.6775 414.525 27.7834 414.641 27.9324C414.758 28.0814 414.818 28.2643 414.811 28.4506C414.786 28.7493 414.74 29.046 414.671 29.3384C414.487 30.328 414.309 31.3174 414.114 32.2963C414.025 32.6867 413.908 33.0612 413.78 33.4569C413.735 33.5807 413.661 33.6925 413.562 33.7832C413.501 33.8515 413.423 33.9038 413.335 33.9354C413.248 33.9671 413.153 33.977 413.06 33.9642C412.968 33.9514 412.88 33.9163 412.805 33.8623C412.73 33.8082 412.67 33.7368 412.632 33.6549C412.565 33.5078 412.529 33.3497 412.526 33.1895C412.526 32.5263 412.526 31.8577 412.57 31.1891C412.646 30.2349 412.795 29.2874 413.016 28.3543C413.042 28.2293 413.091 28.1097 413.161 28.0013V27.9852Z" fill="#3A3B7B"/>
<path fill-rule="evenodd" clip-rule="evenodd" d="M388.162 39.4987C388.097 39.6397 388.078 39.7969 388.111 39.9481C388.132 40.1475 388.179 40.3436 388.251 40.532C388.34 40.7627 388.44 40.9908 388.563 41.2719C388.591 41.3366 388.621 41.4041 388.652 41.4752C388.818 41.8561 389.026 42.3428 389.304 43.0473C389.383 43.2474 389.453 43.4492 389.523 43.6523C389.552 43.7344 389.58 43.8167 389.609 43.8993C389.714 44.1927 389.894 44.4563 390.133 44.6652C390.234 44.7801 390.369 44.8637 390.519 44.9056C390.673 44.9482 390.837 44.9455 390.989 44.8978C391.141 44.8501 391.274 44.7595 391.372 44.6379C391.468 44.5186 391.525 44.375 391.536 44.2248C391.598 43.9324 391.577 43.6292 391.474 43.3473C391.312 42.8792 391.127 42.4104 390.913 41.952L390.912 41.9499C390.561 41.2326 390.204 40.5202 389.83 39.8076L389.827 39.8026C389.717 39.6169 389.575 39.4509 389.406 39.3121C389.297 39.1882 389.146 39.1046 388.979 39.0758C388.808 39.0464 388.633 39.076 388.483 39.1594C388.341 39.2371 388.229 39.3558 388.162 39.4987Z" fill="#3A3B7B"/>
<path fill-rule="evenodd" clip-rule="evenodd" d="M393.529 37.7324C392.978 37.5954 392.403 37.5755 391.843 37.6739C391.409 37.7149 390.983 37.8109 390.687 38.001C390.536 38.0977 390.415 38.222 390.347 38.3799C390.279 38.5387 390.27 38.7202 390.326 38.9226C390.428 39.2932 390.56 39.6535 390.692 40.0127L390.713 40.0708L390.714 40.0721C391.111 41.1155 391.511 42.1554 391.916 43.1918C391.963 43.3551 392.03 43.5126 392.115 43.6612L392.116 43.664C392.228 43.8486 392.372 44.0137 392.542 44.1524C392.626 44.2286 392.731 44.2814 392.845 44.305C392.959 44.3287 393.079 44.3219 393.19 44.285C393.301 44.2481 393.399 44.1828 393.474 44.096C393.547 44.0106 393.596 43.9077 393.613 43.7983C393.686 43.5009 393.663 43.1892 393.546 42.9049C393.51 42.8092 393.481 42.7115 393.451 42.6086C393.441 42.5743 393.431 42.5394 393.42 42.5038C394.346 42.1565 395.331 41.6895 395.677 40.6031C395.813 40.2277 395.824 39.8212 395.709 39.4393C395.595 39.057 395.359 38.7182 395.036 38.4694C394.595 38.1212 394.081 37.8696 393.529 37.7324ZM392.002 39.0649C392.02 39.0598 392.038 39.0552 392.057 39.0508C392.659 38.9599 393.276 39.081 393.793 39.3919C394.021 39.544 394.114 39.7129 394.13 39.8755C394.147 40.0429 394.083 40.2243 393.956 40.3987C393.715 40.7281 393.276 40.9918 392.879 41.0409C392.59 40.4015 392.296 39.7362 392.002 39.0649Z" fill="#3A3B7B"/>
<path d="M397.202 36.5619C397.858 36.2711 398.671 36.2208 399.306 36.4253C399.467 36.4701 399.606 36.5669 399.7 36.6993C399.793 36.8308 399.836 36.9893 399.822 37.1478C399.821 37.2506 399.794 37.3518 399.745 37.4431C399.695 37.5361 399.622 37.616 399.532 37.6762C399.443 37.7363 399.34 37.775 399.232 37.7888C399.123 37.8027 399.013 37.7913 398.911 37.7557L398.903 37.753L398.895 37.7492C398.843 37.7229 398.787 37.703 398.729 37.6901L398.726 37.6893C398.278 37.5752 397.856 37.7642 397.702 37.9964C397.629 38.1071 397.62 38.2188 397.681 38.3205C397.746 38.4294 397.907 38.5515 398.233 38.6386C398.322 38.6622 398.414 38.685 398.507 38.7081C398.764 38.772 399.032 38.8385 399.29 38.9305L399.291 38.9309C400.484 39.3665 400.928 40.2688 400.776 41.1175C400.626 41.9567 399.896 42.7205 398.798 42.9006C398.398 42.9856 397.982 42.9691 397.591 42.8526C397.199 42.7357 396.846 42.5225 396.566 42.2341L396.559 42.2265C396.471 42.1179 396.412 41.9902 396.385 41.8547C396.361 41.7324 396.374 41.6061 396.422 41.4905C396.47 41.3757 396.551 41.2762 396.655 41.2038C396.765 41.1217 396.898 41.0724 397.038 41.0621C397.176 41.0519 397.315 41.0808 397.437 41.1453C397.559 41.2018 397.672 41.2738 397.774 41.3594L397.776 41.3609C397.955 41.5187 398.173 41.5598 398.381 41.5217C398.593 41.4831 398.792 41.3629 398.92 41.2035C399.047 41.0451 399.098 40.8569 399.037 40.6742C398.976 40.4902 398.793 40.2841 398.391 40.1117C398.285 40.0688 398.176 40.0342 398.063 40.0005C398.032 39.9914 398.001 39.9824 397.969 39.9732C397.886 39.9488 397.799 39.9236 397.714 39.8958C397.656 39.8768 397.598 39.8587 397.541 39.8407C397.384 39.7918 397.232 39.7441 397.085 39.6801C396.765 39.5756 396.489 39.3749 396.297 39.1078C396.104 38.8396 396.008 38.5188 396.021 38.1935C396.022 37.4006 396.542 36.8543 397.202 36.5619Z" fill="#3A3B7B"/>
<path d="M405.52 36.4775C405.392 36.4178 405.252 36.3895 405.11 36.3951C404.969 36.4007 404.831 36.44 404.709 36.5095C404.588 36.5785 404.487 36.6751 404.415 36.7907C404.348 36.8881 404.302 36.997 404.279 37.1114C404.256 37.2257 404.257 37.3431 404.281 37.4572C404.304 37.6037 404.331 37.7462 404.357 37.8867C404.4 38.1193 404.441 38.3466 404.469 38.5783L404.47 38.5842C404.533 38.9477 404.566 39.3153 404.569 39.6837L404.569 39.6889C404.59 40.0868 404.449 40.4769 404.175 40.7765L404.171 40.7818C404.082 40.8913 403.963 40.9749 403.827 41.0232C403.692 41.0715 403.544 41.0826 403.403 41.0553C403.261 41.0279 403.129 40.9632 403.024 40.8684C402.918 40.7736 402.841 40.652 402.803 40.518C402.722 40.2355 402.675 39.945 402.663 39.6522L402.802 37.5298C402.804 37.5021 402.806 37.4736 402.809 37.4449C402.814 37.3804 402.819 37.3148 402.822 37.2535C402.825 37.1634 402.822 37.0708 402.8 36.9831C402.778 36.8934 402.735 36.8081 402.66 36.7355C402.585 36.6636 402.484 36.6106 402.357 36.5745C402.127 36.5107 401.933 36.5127 401.771 36.5786C401.609 36.6445 401.498 36.7669 401.42 36.9083C401.342 37.0485 401.292 37.2145 401.254 37.3808C401.226 37.5041 401.203 37.6336 401.182 37.7569C401.174 37.7994 401.167 37.8411 401.16 37.8816L401.16 37.8828C401.045 38.5589 401.011 39.2453 401.058 39.9287C401.067 40.2981 401.147 40.6627 401.295 41.0039C401.461 41.4441 401.763 41.8255 402.16 42.0978C402.558 42.3707 403.033 42.521 403.522 42.5289C404.011 42.5369 404.491 42.402 404.898 42.1423C405.305 41.883 405.62 41.5113 405.802 41.0764C406.057 40.5224 406.176 39.92 406.151 39.315C406.136 38.8732 406.111 38.4281 406.087 37.9853C406.074 37.7681 406.062 37.5513 406.051 37.3359C406.046 37.1198 405.971 36.9106 405.838 36.7362C405.756 36.6259 405.647 36.537 405.52 36.4775Z" fill="#3A3B7B"/>
<path d="M410.022 39.8055C410.009 39.8212 409.996 39.8375 409.981 39.8544C409.878 39.2815 409.782 38.7088 409.686 38.1352C409.652 37.9293 409.617 37.7227 409.582 37.5166L409.578 37.4936L409.566 37.4737C409.542 37.4363 409.539 37.3997 409.539 37.3215V37.3125L409.538 37.3035C409.512 37.1421 409.436 36.9918 409.319 36.8725C409.204 36.7534 409.053 36.6706 408.887 36.6346C408.722 36.5955 408.548 36.6041 408.388 36.6594C408.228 36.7146 408.089 36.8138 407.988 36.9445C407.903 37.0449 407.834 37.1562 407.782 37.2751C407.665 37.5313 407.546 37.7881 407.427 38.0456L407.425 38.05C407.128 38.6929 406.83 39.3401 406.539 39.9924L406.539 39.9945C406.36 40.4175 406.213 40.8631 406.067 41.3074C406.038 41.3961 406.008 41.4847 405.979 41.5731C405.926 41.7133 405.903 41.8622 405.911 42.0111C405.901 42.1444 405.934 42.2773 406.006 42.392C406.079 42.509 406.189 42.601 406.319 42.6552C406.457 42.7133 406.612 42.7257 406.758 42.6903C406.904 42.6549 407.034 42.574 407.127 42.4602C407.246 42.32 407.348 42.1672 407.431 42.0052C407.677 41.5227 407.912 41.0343 408.146 40.548C408.236 40.3599 408.324 40.1914 408.424 40.008C408.431 40.0306 408.438 40.0526 408.445 40.0748C408.55 40.5177 408.727 40.942 408.97 41.332C409.015 41.4146 409.079 41.4869 409.157 41.5437C409.236 41.6012 409.326 41.6416 409.423 41.6621C409.519 41.6826 409.619 41.6827 409.715 41.6624C409.812 41.6421 409.903 41.6017 409.981 41.5444L410.137 41.4327L411.344 40.457L411.272 40.8936C411.174 41.4936 411.077 42.0886 410.974 42.6838C410.906 42.9476 410.906 43.2231 410.974 43.4868C411.003 43.6352 411.078 43.7719 411.189 43.8793C411.3 43.9876 411.443 44.0612 411.599 44.0906C411.755 44.1199 411.916 44.1037 412.062 44.0439C412.206 43.985 412.328 43.8866 412.414 43.7611C412.613 43.5241 412.737 43.2373 412.771 42.9346C412.822 42.5072 412.88 42.074 412.938 41.6409C413.004 41.1417 413.071 40.6427 413.127 40.1532L413.128 40.1517C413.182 39.6159 413.208 39.0779 413.206 38.5396C413.218 38.3694 413.174 38.2 413.08 38.0551C412.985 37.9098 412.846 37.7968 412.681 37.7322C412.509 37.6572 412.316 37.6372 412.132 37.675C411.949 37.7127 411.783 37.8054 411.658 37.9398C411.435 38.1374 411.227 38.3488 411.033 38.5728L411.032 38.5743C410.82 38.8272 410.61 39.0851 410.401 39.3413C410.275 39.4971 410.148 39.6525 410.022 39.8055Z" fill="#3A3B7B"/>
</g>
<g clip-path="url(#clip4_211_2045)">
<path d="M542.081 26.0332C542.081 26.3576 542.347 26.6205 542.675 26.6205H543.27C543.598 26.6205 543.864 26.3576 543.864 26.0332C543.864 25.7089 543.598 25.4459 543.27 25.4459H542.675C542.347 25.4459 542.081 25.7089 542.081 26.0332Z" fill="#212326"/>
<path d="M524.838 44.2398H527.727L526.886 43.4092C526.663 43.1889 526.36 43.0652 526.045 43.0652H524.838C520.241 43.0652 516.515 39.3839 516.515 34.8429C516.515 30.3018 520.241 26.6205 524.838 26.6205H534.351C538.948 26.6205 542.675 30.3018 542.675 34.8429C542.675 39.3839 538.948 43.0652 534.351 43.0652H530.793C530.32 43.0652 529.866 42.8795 529.531 42.5491L528.546 41.576C527.989 41.0253 527.233 40.7159 526.444 40.7159H524.838C521.555 40.7159 518.893 38.0865 518.893 34.8429C518.893 31.5992 521.555 28.9698 524.838 28.9698H534.351C537.635 28.9698 540.297 31.5992 540.297 34.8429C540.297 38.0865 537.635 40.7159 534.351 40.7159H532.066C531.593 40.7159 531.14 40.5303 530.805 40.1999L529.82 39.2268C529.262 38.6761 528.506 38.3667 527.718 38.3667H524.838C522.868 38.3667 521.271 36.789 521.271 34.8429C521.271 32.8967 522.868 31.319 524.838 31.319H534.351C536.322 31.319 537.919 32.8967 537.919 34.8429C537.919 36.7653 536.36 38.3282 534.423 38.366L534.423 38.3667H533.553C533.08 38.3667 532.626 38.1811 532.292 37.8507L531.306 36.8776C530.849 36.4257 530.258 36.1363 529.625 36.047L529.595 36.0175H524.838C524.182 36.0175 523.649 35.4916 523.649 34.8429C523.649 34.1941 524.182 33.6682 524.838 33.6682H534.351C535.008 33.6682 535.54 34.1941 535.54 34.8429C535.54 35.4916 535.008 36.0175 534.351 36.0175H531.973L532.814 36.8481C533.037 37.0683 533.339 37.1921 533.655 37.1921H534.351C535.665 37.1921 536.73 36.1403 536.73 34.8429C536.73 33.5454 535.665 32.4936 534.351 32.4936H524.838C523.525 32.4936 522.46 33.5454 522.46 34.8429C522.46 36.1403 523.525 37.1921 524.838 37.1921H529.204C529.677 37.1921 530.131 37.3777 530.466 37.7081L531.451 38.6812C532.008 39.2319 532.764 39.5413 533.553 39.5413H534.649V39.5323C537.137 39.3807 539.108 37.3391 539.108 34.8429C539.108 32.248 536.978 30.1444 534.351 30.1444H524.838C522.211 30.1444 520.082 32.248 520.082 34.8429C520.082 37.4378 522.211 39.5413 524.838 39.5413H527.718C528.191 39.5413 528.645 39.727 528.979 40.0574L529.964 41.0305C530.522 41.5812 531.278 41.8906 532.066 41.8906H534.351C538.292 41.8906 541.486 38.7352 541.486 34.8429C541.486 30.9505 538.292 27.7952 534.351 27.7952H524.838C520.898 27.7952 517.704 30.9505 517.704 34.8429C517.704 38.7352 520.898 41.8906 524.838 41.8906H526.444C526.917 41.8906 527.371 42.0762 527.706 42.4066L528.691 43.3797C529.248 43.9304 530.004 44.2398 530.793 44.2398H534.351C539.605 44.2398 543.864 40.0326 543.864 34.8429C543.864 29.6531 539.605 25.4459 534.351 25.4459L524.838 25.4459C519.585 25.4459 515.325 29.6531 515.325 34.8429C515.325 40.0326 519.585 44.2398 524.838 44.2398Z" fill="#212326"/>
</g>
<g clip-path="url(#clip5_211_2045)">
<path d="M647.818 27.5341C646.404 27.5341 645.048 28.0956 644.049 29.0951L640.787 32.3571C639.787 33.3566 639.226 34.7122 639.226 36.1257C639.226 39.0693 641.612 41.4554 644.556 41.4554C645.969 41.4554 647.325 40.8939 648.324 39.8944L650.581 37.6381C650.581 37.638 650.581 37.6381 650.581 37.6381L657.155 31.0639C657.632 30.5865 658.28 30.3183 658.955 30.3183C660.085 30.3183 661.043 31.055 661.375 32.0743L663.45 29.9995C662.504 28.5171 660.844 27.5341 658.955 27.5341C657.541 27.5341 656.185 28.0956 655.186 29.0951L646.355 37.9256C645.878 38.403 645.231 38.6712 644.556 38.6712C643.15 38.6712 642.01 37.5316 642.01 36.1257C642.01 35.4506 642.278 34.8032 642.756 34.3258L646.018 31.0639C646.495 30.5865 647.142 30.3183 647.818 30.3183C648.948 30.3183 649.906 31.055 650.238 32.0744L652.313 29.9996C651.366 28.5171 649.707 27.5341 647.818 27.5341Z" fill="#394149"/>
<path d="M657.493 37.9256C657.015 38.403 656.368 38.6712 655.693 38.6712C654.563 38.6712 653.604 37.9347 653.272 36.9155L651.197 38.9903C652.144 40.4726 653.804 41.4554 655.693 41.4554C657.106 41.4554 658.462 40.8939 659.461 39.8944L668.292 31.0639C668.769 30.5865 669.417 30.3183 670.092 30.3183C671.498 30.3183 672.637 31.458 672.637 32.8638C672.637 33.5389 672.369 34.1863 671.892 34.6637L668.63 37.9256C668.152 38.403 667.505 38.6712 666.83 38.6712C665.7 38.6712 664.741 37.9346 664.409 36.9153L662.334 38.9901C663.281 40.4725 664.941 41.4554 666.83 41.4554C668.243 41.4554 669.599 40.8939 670.598 39.8944L673.86 36.6324C674.86 35.6329 675.421 34.2773 675.421 32.8638C675.421 29.9202 673.035 27.5341 670.092 27.5341C668.678 27.5341 667.323 28.0956 666.323 29.0951L657.493 37.9256Z" fill="#394149"/>
</g>
<g clip-path="url(#clip6_211_2045)">
<path d="M804.887 31.4805C804.891 31.4515 804.891 31.4222 804.887 31.3931C804.891 31.3695 804.891 31.3454 804.887 31.3217L804.604 29.2803C804.563 29.0361 804.453 28.8079 804.288 28.6211L804.239 28.5655L804.15 28.4781L799.24 24.3319L799.378 24.467C799.265 24.3348 799.124 24.2291 798.964 24.1576C798.804 24.0861 798.63 24.0507 798.454 24.0539H796.964C796.721 24.0492 796.484 24.1248 796.291 24.2684C796.088 24.1256 795.844 24.0505 795.594 24.0539H794.104C793.908 24.0508 793.715 24.0984 793.545 24.1918C793.374 24.2853 793.231 24.4213 793.131 24.5861C792.977 24.8215 792.92 25.1051 792.969 25.3804L793.156 26.6671C793.032 26.5985 792.893 26.5629 792.751 26.5639H785.532C785.273 26.5655 785.02 26.6399 784.803 26.7783C784.593 26.9072 784.424 27.0917 784.317 27.3105L783.757 26.8419C783.537 26.6423 783.247 26.5341 782.947 26.54H771.621C771.361 26.5447 771.107 26.6159 770.883 26.7466C770.578 26.9218 770.354 27.2067 770.26 27.5408L766.662 39.3361C766.595 39.5304 766.589 39.74 766.643 39.9381C766.698 40.1361 766.812 40.3137 766.97 40.4481C767.011 40.4823 767.055 40.5142 767.1 40.5434C767.1 40.5434 767.027 40.4957 766.986 40.456L771.896 44.6101C772.104 44.7976 772.375 44.9024 772.658 44.904H784.073C784.334 44.8974 784.588 44.8234 784.811 44.6895C784.936 44.6222 785.049 44.5334 785.143 44.4274L785.183 44.3718L785.248 44.2924L785.297 44.205L785.832 44.6578C786.036 44.8378 786.302 44.9368 786.577 44.9358H798.017C798.277 44.9273 798.531 44.8535 798.754 44.7213C798.877 44.6499 798.989 44.5616 799.086 44.4592L799.127 44.4036L799.192 44.3242C799.226 44.2739 799.256 44.2208 799.281 44.1653C799.307 44.1172 799.329 44.0666 799.346 44.0144L802.627 33.2439V33.1485C802.631 33.1116 802.631 33.0743 802.627 33.0373V32.9659C802.631 32.9422 802.631 32.9181 802.627 32.8944C802.631 32.8441 802.631 32.7937 802.627 32.7434H803.68C803.772 32.7517 803.864 32.7517 803.956 32.7434H804.029C804.088 32.7261 804.145 32.7021 804.199 32.672H804.28L804.426 32.5608L804.49 32.5131L804.604 32.3701V32.3225L804.685 32.1874C804.68 32.1612 804.68 32.1343 804.685 32.108C804.681 32.0951 804.681 32.0812 804.685 32.0683C804.702 32.0217 804.716 31.9739 804.725 31.9253C804.722 31.9097 804.722 31.8933 804.725 31.8777C804.721 31.854 804.721 31.8298 804.725 31.8062C804.725 31.8062 804.887 31.4964 804.887 31.4805Z" fill="black"/>
<path d="M783.279 27.4456C783.322 27.4837 783.353 27.5338 783.366 27.5892C783.379 27.6446 783.374 27.7026 783.352 27.7553L779.763 39.5426C779.718 39.6713 779.626 39.7789 779.504 39.8444C779.405 39.9093 779.291 39.9477 779.172 39.9556H767.764C767.667 39.951 767.575 39.9115 767.505 39.8444C767.464 39.8069 767.435 39.7582 767.422 39.7044C767.409 39.6507 767.412 39.5943 767.432 39.5426L771.029 27.7553C771.071 27.625 771.16 27.5146 771.28 27.4456C771.381 27.3853 771.495 27.3499 771.613 27.3423H783.02C783.117 27.3432 783.21 27.3801 783.279 27.4456ZM777.325 37.1677L779.472 30.1303H773.46L771.321 37.1677H777.325ZM794.168 27.5647C794.207 27.609 794.256 27.6442 794.311 27.6676C794.366 27.691 794.425 27.702 794.485 27.6997H795.967C796.024 27.7003 796.079 27.6867 796.129 27.6603C796.179 27.6339 796.22 27.5955 796.251 27.5488C796.277 27.5123 796.296 27.471 796.305 27.4274C796.315 27.3837 796.316 27.3386 796.307 27.2947L796.016 25.1977C795.988 25.1007 795.938 25.0111 795.87 24.9356C795.831 24.8913 795.782 24.8561 795.728 24.8327C795.673 24.8093 795.614 24.7984 795.554 24.8006H794.071C794.015 24.8 793.959 24.8136 793.91 24.84C793.86 24.8664 793.818 24.9048 793.788 24.9515C793.731 25.0627 793.707 25.1342 793.731 25.1977L794.031 27.2947C794.046 27.3968 794.094 27.4914 794.168 27.5647ZM798.876 25.1818C798.848 25.0848 798.798 24.9952 798.73 24.9197C798.693 24.8755 798.645 24.8404 798.592 24.817C798.539 24.7936 798.48 24.7825 798.422 24.7847H796.931C796.876 24.7831 796.821 24.7964 796.772 24.8229C796.724 24.8495 796.684 24.8884 796.656 24.9356C796.602 25.0061 796.579 25.0946 796.591 25.1818L796.891 27.2788C796.91 27.3798 796.957 27.4735 797.029 27.5488C797.068 27.5923 797.117 27.6269 797.171 27.6502C797.226 27.6735 797.285 27.685 797.344 27.6838H798.835C798.891 27.6846 798.945 27.671 798.994 27.6445C799.042 27.618 799.082 27.5796 799.111 27.5329C799.139 27.4974 799.159 27.4561 799.168 27.4121C799.178 27.3682 799.178 27.3226 799.167 27.2788L798.876 25.1818ZM792.864 28.359L792.718 27.3264H785.532C785.419 27.3325 785.31 27.3682 785.216 27.4297C785.156 27.4616 785.104 27.5058 785.064 27.5593C785.023 27.6128 784.995 27.6742 784.981 27.7395L784.381 29.7093C784.357 29.7585 784.349 29.8137 784.358 29.8676C784.367 29.9215 784.392 29.9715 784.43 30.0111C784.498 30.0741 784.587 30.1108 784.681 30.1144H793.415L791.268 37.1518H782.558C782.446 37.1543 782.337 37.1873 782.242 37.2471C782.128 37.3184 782.044 37.4288 782.007 37.5569L781.4 39.5267C781.38 39.5773 781.375 39.6322 781.385 39.6854C781.395 39.7387 781.42 39.7882 781.457 39.8285C781.523 39.8957 781.613 39.9355 781.708 39.9397H793.148C793.266 39.9298 793.38 39.8916 793.48 39.8285C793.599 39.7626 793.689 39.6548 793.731 39.5267L797.02 28.7561H793.318C793.259 28.7573 793.201 28.7466 793.146 28.7247C793.092 28.7029 793.043 28.6703 793.002 28.6291C792.935 28.557 792.887 28.4696 792.864 28.3749V28.359Z" fill="white"/>
</g>
<defs>
<clipPath id="clip0_211_2045">
<rect width="27.8428" height="27.8428" fill="white" transform="translate(3.01831 20.6801)"/>
</clipPath>
<clipPath id="clip1_211_2045">
<rect width="27.8428" height="19.4899" fill="white" transform="translate(131.095 24.7498)"/>
</clipPath>
<clipPath id="clip2_211_2045">
<rect width="38.2838" height="20.8821" fill="white" transform="translate(254.299 24.0537)"/>
</clipPath>
<clipPath id="clip3_211_2045">
<rect width="32.7153" height="20.186" fill="white" transform="translate(385.16 24.7498)"/>
</clipPath>
<clipPath id="clip4_211_2045">
<rect width="28.5388" height="18.7939" fill="white" transform="translate(515.325 25.4459)"/>
</clipPath>
<clipPath id="clip5_211_2045">
<rect width="36.1956" height="13.9214" fill="white" transform="translate(639.226 27.5341)"/>
</clipPath>
<clipPath id="clip6_211_2045">
<rect width="38.2838" height="20.8821" fill="white" transform="translate(766.607 24.0537)"/>
</clipPath>
</defs>
</svg>
