<svg width="34" height="34" viewBox="0 0 34 34" fill="none" xmlns="http://www.w3.org/2000/svg">
<path d="M7.0907 5.71722H26.9286C28.0102 5.71722 29.0505 6.12064 29.8485 6.8432L30.0048 6.99164C30.8206 7.80745 31.2791 8.91408 31.2792 10.0678V23.6411C31.2792 24.7949 30.8206 25.9014 30.0048 26.7172C29.1889 27.5331 28.0824 27.9916 26.9286 27.9916H7.0907C6.00908 27.9916 4.96877 27.5892 4.17078 26.8666L4.01453 26.7172C3.19884 25.9014 2.74011 24.7947 2.74011 23.6411V10.0678C2.74017 8.9861 3.14341 7.94591 3.86609 7.14789L4.01453 6.99164C4.77932 6.22684 5.79973 5.7765 6.87488 5.72308L7.0907 5.71722ZM4.13269 23.6411C4.13269 24.3275 4.37134 24.9897 4.80261 25.5161L4.9989 25.7328C5.55364 26.2876 6.30619 26.6 7.0907 26.6H26.9286C27.7132 26.6 28.4656 26.2876 29.0204 25.7328C29.5752 25.1781 29.8876 24.4256 29.8876 23.6411V13.3745H4.13269V23.6411ZM22.2303 20.3354H25.3632C25.5014 20.3355 25.6355 20.3761 25.7489 20.4516L25.8553 20.5385C25.9858 20.6689 26.0584 20.8462 26.0585 21.0307C26.0585 21.2151 25.9856 21.3924 25.8553 21.5229C25.7249 21.6533 25.5476 21.7269 25.3632 21.727H22.2303C22.0458 21.727 21.8687 21.6534 21.7382 21.5229C21.6078 21.3924 21.5341 21.2152 21.5341 21.0307C21.5341 20.8924 21.5756 20.7584 21.6512 20.645L21.7382 20.5385C21.8687 20.4081 22.0458 20.3354 22.2303 20.3354ZM7.0907 7.1098C6.30619 7.10986 5.55364 7.42128 4.9989 7.97601C4.44417 8.53075 4.13275 9.2833 4.13269 10.0678V11.9819H29.8876V10.0678C29.8875 9.38136 29.6489 8.71917 29.2177 8.19281L29.0204 7.97601C28.4656 7.42139 27.713 7.1098 26.9286 7.1098H7.0907Z" fill="#4CAF4F" stroke="#4CAF4F" stroke-width="0.696069"/>
</svg>
